<svg xmlns="http://www.w3.org/2000/svg" xmlns:xlink="http://www.w3.org/1999/xlink" width="200" zoomAndPan="magnify" viewBox="0 0 150 56.999997" height="76" preserveAspectRatio="xMidYMid meet" version="1.0"><defs><g/><clipPath id="ca0c08a90b"><path d="M 0 13.621094 L 29.25 13.621094 L 29.25 42.871094 L 0 42.871094 Z M 0 13.621094 " clip-rule="nonzero"/></clipPath></defs><g clip-path="url(#ca0c08a90b)"><path fill="#000000" d="M 1.726562 24.261719 L 11.066406 29.640625 L 9.761719 30.390625 L 1.394531 25.570312 C 1.484375 25.125 1.597656 24.6875 1.726562 24.261719 Z M 1.210938 26.769531 C 1.15625 27.253906 1.128906 27.746094 1.128906 28.246094 L 7.296875 31.808594 L 8.628906 31.042969 Z M 14.625 13.621094 C 6.546875 13.621094 0 20.167969 0 28.246094 C 0 36.324219 6.546875 42.871094 14.625 42.875 C 22.703125 42.875 29.25 36.324219 29.25 28.246094 C 29.25 20.171875 22.703125 13.621094 14.625 13.621094 Z M 1.195312 29.589844 C 1.25 30.148438 1.339844 30.695312 1.460938 31.230469 L 4.867188 33.203125 L 6.164062 32.457031 Z M 12.199219 28.988281 L 13.507812 28.238281 L 2.664062 21.992188 C 2.460938 22.378906 2.277344 22.773438 2.113281 23.175781 Z M 14.625 27.578125 L 26.019531 21.015625 C 25.78125 20.636719 25.523438 20.273438 25.25 19.921875 L 14.625 26.0625 L 14.625 26.066406 L 14.625 26.0625 L 14.625 26.066406 L 14.625 26.0625 L 4 19.921875 C 3.726562 20.273438 3.46875 20.636719 3.230469 21.015625 Z M 3.214844 35.457031 C 3.445312 35.820312 3.691406 36.171875 3.957031 36.511719 L 14.625 30.359375 L 25.292969 36.511719 C 25.558594 36.171875 25.804688 35.820312 26.035156 35.457031 L 14.625 28.898438 Z M 14.625 24.757812 L 24.5 19.050781 C 24.394531 18.933594 24.28125 18.816406 24.167969 18.703125 C 23.964844 18.496094 23.75 18.296875 23.53125 18.105469 L 14.625 23.234375 L 5.71875 18.105469 C 5.5 18.296875 5.285156 18.496094 5.082031 18.703125 C 4.96875 18.816406 4.855469 18.933594 4.746094 19.050781 Z M 4.695312 37.390625 L 14.625 31.664062 L 24.554688 37.390625 C 24.429688 37.523438 24.300781 37.660156 24.167969 37.789062 C 23.96875 37.988281 23.765625 38.179688 23.554688 38.367188 L 14.625 33.210938 L 5.695312 38.367188 C 5.484375 38.179688 5.28125 37.988281 5.082031 37.789062 C 4.949219 37.660156 4.820312 37.523438 4.695312 37.390625 Z M 20.621094 31.042969 L 28.039062 26.769531 C 28.09375 27.253906 28.121094 27.746094 28.121094 28.246094 L 21.953125 31.808594 Z M 23.085938 32.457031 L 28.054688 29.589844 C 28 30.148438 27.910156 30.695312 27.789062 31.230469 L 24.382812 33.203125 Z M 6.636719 39.128906 L 14.625 34.515625 L 22.613281 39.128906 C 22.226562 39.410156 21.824219 39.675781 21.40625 39.917969 L 14.625 36.003906 L 7.84375 39.917969 C 7.425781 39.675781 7.023438 39.410156 6.636719 39.128906 Z M 9.035156 40.535156 L 14.625 37.308594 L 20.214844 40.535156 C 19.703125 40.769531 19.171875 40.972656 18.628906 41.140625 L 14.625 38.820312 L 10.621094 41.140625 C 10.078125 40.972656 9.546875 40.769531 9.035156 40.535156 Z M 12.207031 41.527344 L 14.625 40.125 L 17.042969 41.527344 C 16.308594 41.660156 15.546875 41.734375 14.773438 41.742188 L 14.476562 41.742188 C 13.703125 41.734375 12.941406 41.660156 12.207031 41.527344 Z M 14.625 21.929688 L 6.664062 17.347656 C 7.054688 17.0625 7.457031 16.800781 7.875 16.558594 L 14.625 20.457031 L 21.375 16.558594 C 21.792969 16.800781 22.195312 17.0625 22.585938 17.347656 Z M 14.625 19.152344 L 9.070312 15.945312 C 9.582031 15.710938 10.113281 15.511719 10.660156 15.34375 L 14.625 17.640625 L 18.589844 15.34375 C 19.136719 15.511719 19.667969 15.710938 20.179688 15.945312 Z M 14.625 16.332031 L 12.253906 14.957031 C 12.976562 14.832031 13.71875 14.761719 14.476562 14.753906 L 14.773438 14.753906 C 15.53125 14.761719 16.273438 14.832031 16.996094 14.957031 Z M 3.734375 33.855469 L 2.652344 34.480469 C 2.371094 33.941406 2.125 33.378906 1.917969 32.800781 Z M 17.050781 28.988281 L 15.742188 28.238281 L 26.585938 21.992188 C 26.789062 22.378906 26.972656 22.773438 27.136719 23.175781 Z M 18.179688 29.640625 L 27.519531 24.261719 C 27.652344 24.6875 27.765625 25.125 27.855469 25.570312 L 19.488281 30.390625 Z M 26.597656 34.480469 L 25.515625 33.855469 L 27.332031 32.800781 C 27.125 33.378906 26.878906 33.941406 26.597656 34.480469 Z M 26.597656 34.480469 " fill-opacity="1" fill-rule="evenodd"/></g><g fill="#000000" fill-opacity="1"><g transform="translate(44.087863, 36.232722)"><g><path d="M 7.109375 -21.40625 L 11.296875 -21.40625 L 11.296875 -8.75 C 11.296875 -7.09375 10.941406 -5.585938 10.234375 -4.234375 C 9.523438 -2.878906 8.515625 -1.804688 7.203125 -1.015625 C 5.898438 -0.222656 4.347656 0.171875 2.546875 0.171875 C 2.109375 0.171875 1.789062 0.144531 1.59375 0.09375 C 1.394531 0.0507812 1.144531 0.0195312 0.84375 0 L 0.84375 -3.921875 C 1.070312 -3.898438 1.300781 -3.863281 1.53125 -3.8125 C 1.769531 -3.769531 2.0625 -3.75 2.40625 -3.75 C 4 -3.75 5.179688 -4.210938 5.953125 -5.140625 C 6.722656 -6.078125 7.109375 -7.28125 7.109375 -8.75 Z M 7.109375 -21.40625 "/></g></g></g><g fill="#000000" fill-opacity="1"><g transform="translate(56.751136, 36.232722)"><g><path d="M 14.734375 -8.75 C 14.660156 -10.289062 14.257812 -11.507812 13.53125 -12.40625 C 12.8125 -13.300781 11.660156 -13.75 10.078125 -13.75 C 8.367188 -13.75 7.140625 -13.257812 6.390625 -12.28125 C 5.648438 -11.300781 5.28125 -10.125 5.28125 -8.75 C 5.28125 -7.832031 5.4375 -6.992188 5.75 -6.234375 C 6.070312 -5.484375 6.585938 -4.878906 7.296875 -4.421875 C 8.003906 -3.972656 8.929688 -3.75 10.078125 -3.75 C 11.523438 -3.75 12.660156 -4.15625 13.484375 -4.96875 C 14.316406 -5.78125 14.734375 -7.039062 14.734375 -8.75 Z M 20.328125 0 L 16.125 0 C 15.9375 -0.46875 15.769531 -0.921875 15.625 -1.359375 C 15.488281 -1.804688 15.363281 -2.25 15.25 -2.6875 C 14.664062 -1.832031 13.898438 -1.140625 12.953125 -0.609375 C 12.015625 -0.0859375 10.890625 0.171875 9.578125 0.171875 C 7.929688 0.171875 6.460938 -0.222656 5.171875 -1.015625 C 3.890625 -1.804688 2.882812 -2.882812 2.15625 -4.25 C 1.4375 -5.613281 1.078125 -7.125 1.078125 -8.78125 C 1.078125 -10.414062 1.429688 -11.898438 2.140625 -13.234375 C 2.859375 -14.578125 3.882812 -15.648438 5.21875 -16.453125 C 6.5625 -17.265625 8.179688 -17.671875 10.078125 -17.671875 C 12.734375 -17.671875 14.847656 -16.863281 16.421875 -15.25 C 17.992188 -13.644531 18.828125 -11.476562 18.921875 -8.75 C 18.953125 -8.164062 18.976562 -7.40625 19 -6.46875 C 19.019531 -5.539062 19.117188 -4.515625 19.296875 -3.390625 C 19.472656 -2.273438 19.816406 -1.144531 20.328125 0 Z M 20.328125 0 "/></g></g></g><g fill="#000000" fill-opacity="1"><g transform="translate(77.07541, 36.232722)"><g><path d="M 6.296875 -8.75 L 6.296875 0 L 2.09375 0 L 2.09375 -8.71875 C 2.09375 -10.363281 2.441406 -11.863281 3.140625 -13.21875 C 3.847656 -14.570312 4.875 -15.648438 6.21875 -16.453125 C 7.570312 -17.265625 9.207031 -17.671875 11.125 -17.671875 C 11.382812 -17.671875 11.640625 -17.648438 11.890625 -17.609375 C 12.148438 -17.578125 12.410156 -17.535156 12.671875 -17.484375 L 12.671875 -13.4375 C 12.429688 -13.476562 12.207031 -13.515625 12 -13.546875 C 11.789062 -13.585938 11.566406 -13.609375 11.328125 -13.609375 C 10.078125 -13.609375 9.082031 -13.390625 8.34375 -12.953125 C 7.601562 -12.523438 7.078125 -11.941406 6.765625 -11.203125 C 6.453125 -10.472656 6.296875 -9.65625 6.296875 -8.75 Z M 6.296875 -8.75 "/></g></g></g><g fill="#000000" fill-opacity="1"><g transform="translate(89.738681, 36.232722)"><g><path d="M 19.28125 -17.484375 L 11.921875 0 L 7.734375 0 L 0.390625 -17.484375 L 4.578125 -17.484375 L 9.828125 -4.375 L 15.078125 -17.484375 Z M 19.28125 -17.484375 "/></g></g></g><g fill="#000000" fill-opacity="1"><g transform="translate(108.733646, 36.232722)"><g><path d="M 6.296875 -17.484375 L 6.296875 0 L 2.09375 0 L 2.09375 -17.484375 Z M 4.203125 -19.484375 C 3.359375 -19.484375 2.695312 -19.75 2.21875 -20.28125 C 1.738281 -20.820312 1.5 -21.457031 1.5 -22.1875 C 1.5 -22.925781 1.738281 -23.550781 2.21875 -24.0625 C 2.695312 -24.582031 3.359375 -24.84375 4.203125 -24.84375 C 5.035156 -24.84375 5.6875 -24.578125 6.15625 -24.046875 C 6.625 -23.523438 6.859375 -22.90625 6.859375 -22.1875 C 6.859375 -21.4375 6.625 -20.796875 6.15625 -20.265625 C 5.6875 -19.742188 5.035156 -19.484375 4.203125 -19.484375 Z M 4.203125 -19.484375 "/></g></g></g><g fill="#000000" fill-opacity="1"><g transform="translate(116.429516, 36.232722)"><g><path d="M 1.296875 -0.5625 L 1.296875 -4.515625 C 1.828125 -4.367188 2.5 -4.242188 3.3125 -4.140625 C 4.132812 -4.035156 4.984375 -3.953125 5.859375 -3.890625 C 6.734375 -3.835938 7.519531 -3.8125 8.21875 -3.8125 C 9.59375 -3.8125 10.582031 -3.921875 11.1875 -4.140625 C 11.800781 -4.367188 12.109375 -4.726562 12.109375 -5.21875 C 12.109375 -5.445312 12 -5.640625 11.78125 -5.796875 C 11.570312 -5.960938 11.148438 -6.128906 10.515625 -6.296875 C 9.890625 -6.460938 8.9375 -6.660156 7.65625 -6.890625 C 7.21875 -6.984375 6.65625 -7.101562 5.96875 -7.25 C 5.28125 -7.40625 4.582031 -7.65625 3.875 -8 C 3.175781 -8.351562 2.59375 -8.863281 2.125 -9.53125 C 1.664062 -10.195312 1.4375 -11.078125 1.4375 -12.171875 C 1.4375 -13.429688 1.753906 -14.460938 2.390625 -15.265625 C 3.035156 -16.078125 3.921875 -16.679688 5.046875 -17.078125 C 6.179688 -17.472656 7.460938 -17.671875 8.890625 -17.671875 C 9.472656 -17.671875 10.132812 -17.640625 10.875 -17.578125 C 11.625 -17.515625 12.382812 -17.425781 13.15625 -17.3125 C 13.925781 -17.195312 14.613281 -17.054688 15.21875 -16.890625 L 15.21875 -12.9375 C 14.769531 -13.082031 14.160156 -13.207031 13.390625 -13.3125 C 12.628906 -13.414062 11.832031 -13.492188 11 -13.546875 C 10.175781 -13.609375 9.425781 -13.640625 8.75 -13.640625 C 7.53125 -13.640625 6.675781 -13.519531 6.1875 -13.28125 C 5.695312 -13.050781 5.453125 -12.726562 5.453125 -12.3125 C 5.453125 -11.875 5.738281 -11.546875 6.3125 -11.328125 C 6.882812 -11.117188 7.914062 -10.863281 9.40625 -10.5625 C 10.550781 -10.351562 11.632812 -10.09375 12.65625 -9.78125 C 13.6875 -9.46875 14.519531 -8.984375 15.15625 -8.328125 C 15.800781 -7.671875 16.125 -6.703125 16.125 -5.421875 C 16.125 -4.117188 15.757812 -3.046875 15.03125 -2.203125 C 14.3125 -1.359375 13.335938 -0.742188 12.109375 -0.359375 C 10.890625 0.015625 9.523438 0.203125 8.015625 0.203125 C 7.410156 0.203125 6.703125 0.171875 5.890625 0.109375 C 5.085938 0.0546875 4.285156 -0.0234375 3.484375 -0.140625 C 2.679688 -0.253906 1.953125 -0.394531 1.296875 -0.5625 Z M 1.296875 -0.5625 "/></g></g></g></svg>