<svg xmlns="http://www.w3.org/2000/svg" xmlns:xlink="http://www.w3.org/1999/xlink" width="512" zoomAndPan="magnify" viewBox="0 0 384 383.999986" height="512" preserveAspectRatio="xMidYMid meet" version="1.2"><defs><clipPath id="4ee7bfb197"><path d="M 2.660156 2.660156 L 381.410156 2.660156 L 381.410156 381.410156 L 2.660156 381.410156 Z M 2.660156 2.660156 "/></clipPath></defs><g id="c6f02b9f88"><g clip-rule="nonzero" clip-path="url(#4ee7bfb197)"><path style=" stroke:none;fill-rule:evenodd;fill:#ffffff;fill-opacity:1;" d="M 25.035156 140.398438 L 145.949219 210.046875 L 129.039062 219.769531 L 20.722656 157.382812 C 21.882812 151.613281 23.324219 145.945312 25.035156 140.398438 Z M 18.328125 172.894531 C 17.644531 179.167969 17.292969 185.546875 17.292969 192.003906 L 97.136719 238.113281 L 114.375 228.203125 Z M 192.007812 2.660156 C 87.421875 2.660156 2.660156 87.433594 2.660156 192.015625 C 2.660156 296.589844 87.410156 381.355469 191.992188 381.367188 C 296.570312 381.367188 381.335938 296.59375 381.335938 192.015625 C 381.335938 87.449219 296.574219 2.660156 192.007812 2.660156 Z M 18.148438 209.394531 C 18.859375 216.621094 20.011719 223.71875 21.578125 230.660156 L 65.6875 256.195312 L 82.476562 246.542969 Z M 160.609375 201.621094 L 177.523438 191.894531 L 37.128906 111.050781 C 34.527344 116.023438 32.15625 121.136719 30.027344 126.378906 Z M 191.996094 183.347656 L 339.535156 98.378906 C 336.4375 93.503906 333.101562 88.789062 329.546875 84.257812 L 192.007812 163.75 L 192.007812 163.757812 L 191.988281 163.757812 L 191.988281 163.75 L 54.445312 84.257812 C 50.890625 88.789062 47.558594 93.503906 44.460938 98.378906 Z M 44.285156 285.375 C 47.265625 290.082031 50.464844 294.632812 53.867188 299.023438 L 191.988281 219.355469 L 191.988281 219.34375 L 191.996094 219.351562 L 192.003906 219.34375 L 192.003906 219.355469 L 330.125 299.023438 C 333.53125 294.632812 336.730469 290.082031 339.707031 285.375 L 191.996094 200.445312 Z M 191.996094 146.847656 L 319.867188 72.933594 C 318.460938 71.417969 317.023438 69.929688 315.5625 68.464844 C 312.890625 65.796875 310.132812 63.214844 307.296875 60.722656 L 192.003906 127.105469 L 192.003906 127.113281 L 191.996094 127.109375 L 191.988281 127.113281 L 191.988281 127.105469 L 76.699219 60.722656 C 73.863281 63.214844 71.105469 65.796875 68.433594 68.464844 C 66.972656 69.929688 65.535156 71.417969 64.125 72.933594 Z M 63.457031 310.367188 L 191.996094 236.238281 L 320.539062 310.367188 C 318.914062 312.132812 317.257812 313.867188 315.5625 315.5625 C 312.988281 318.132812 310.335938 320.625 307.605469 323.03125 L 192.007812 256.289062 L 192.007812 256.28125 L 191.996094 256.285156 L 191.988281 256.28125 L 191.988281 256.289062 L 76.386719 323.035156 C 73.660156 320.625 71.007812 318.132812 68.433594 315.5625 C 66.738281 313.867188 65.082031 312.132812 63.457031 310.367188 Z M 269.617188 228.203125 L 365.667969 172.894531 C 366.347656 179.167969 366.699219 185.546875 366.699219 192.003906 L 286.855469 238.113281 Z M 301.515625 246.542969 L 365.847656 209.394531 C 365.132812 216.621094 363.980469 223.71875 362.414062 230.660156 L 318.304688 256.195312 Z M 88.597656 332.878906 L 191.996094 273.183594 L 295.394531 332.878906 C 290.390625 336.558594 285.183594 339.976562 279.792969 343.117188 L 192.007812 292.433594 L 192.007812 292.421875 L 191.996094 292.429688 L 191.988281 292.421875 L 191.988281 292.433594 L 104.203125 343.117188 C 98.8125 339.976562 93.605469 336.558594 88.597656 332.878906 Z M 119.636719 351.101562 L 191.996094 309.324219 L 264.359375 351.101562 C 257.726562 354.121094 250.878906 356.738281 243.835938 358.921875 L 192.003906 328.90625 L 192.003906 328.894531 L 191.996094 328.902344 L 191.988281 328.894531 L 191.988281 328.90625 L 140.15625 358.921875 C 133.113281 356.738281 126.265625 354.121094 119.636719 351.101562 Z M 160.675781 363.9375 L 191.996094 345.796875 L 223.316406 363.9375 C 213.773438 365.664062 203.953125 366.613281 193.929688 366.726562 L 190.066406 366.726562 C 180.039062 366.613281 170.21875 365.664062 160.675781 363.9375 Z M 191.996094 110.226562 L 88.957031 50.886719 C 93.972656 47.21875 99.191406 43.808594 104.59375 40.683594 L 191.988281 91.144531 L 191.988281 91.15625 L 191.996094 91.152344 L 192.007812 91.15625 L 192.007812 91.144531 L 279.402344 40.683594 C 284.804688 43.8125 290.023438 47.21875 295.039062 50.886719 Z M 191.996094 74.253906 L 120.074219 32.726562 C 126.722656 29.71875 133.597656 27.121094 140.660156 24.953125 L 191.988281 54.679688 L 191.988281 54.6875 L 191.996094 54.683594 L 192.007812 54.6875 L 192.007812 54.679688 L 243.335938 24.953125 C 250.398438 27.121094 257.269531 29.71875 263.921875 32.726562 Z M 191.996094 37.769531 L 161.289062 19.980469 C 170.636719 18.324219 180.25 17.410156 190.058594 17.304688 L 193.933594 17.304688 C 203.742188 17.414062 213.355469 18.324219 222.707031 19.980469 Z M 51.023438 264.625 L 36.984375 272.695312 C 33.347656 265.722656 30.167969 258.472656 27.488281 250.984375 Z M 223.382812 201.621094 L 206.472656 191.894531 L 346.863281 111.050781 C 349.46875 116.023438 351.839844 121.136719 353.964844 126.378906 Z M 238.042969 210.046875 L 358.957031 140.398438 C 360.671875 145.945312 362.113281 151.613281 363.273438 157.382812 L 254.953125 219.769531 Z M 347.007812 272.695312 L 332.96875 264.625 L 356.507812 250.984375 C 353.824219 258.472656 350.644531 265.722656 347.007812 272.695312 Z M 347.007812 272.695312 "/></g></g></svg>