<svg xmlns="http://www.w3.org/2000/svg" xmlns:xlink="http://www.w3.org/1999/xlink" width="512" height="512"><rect id="backgroundrect" width="100%" height="100%" x="0" y="0" fill="none" stroke="none"/>
	
	
	
	
	
	
<g class="currentLayer" style=""><title>Layer 1</title><path fill="#6d6d6d" d="M130.709 494.273C129.181 493.925 127.637 493.791 126.11 493.474C120.399 492.289 114.621 491.035 108.935 489.72C95.0361 486.413 81.2358 482.703 67.5516 478.596C63.2594 477.331 56.9934 476.206 53.1451 474.55C50.9469 473.603 48.8288 472.075 47.5098 470.059C45.3913 466.82 45.8588 461.709 46.7279 458.111C48.2915 451.637 52.3972 445.58 58.1203 442.086C61.0375 440.306 64.6484 439.701 67.8964 438.744L81.5244 434.706L115.895 424.453C119.975 423.243 126.058 422.239 129.485 419.956C132.628 417.862 134.421 413.934 135.306 410.368C137.317 402.264 136.61 393.277 135.18 385.114C134.67 382.201 133.919 379.344 133.615 376.397C132.701 367.527 132.032 358.633 131.007 349.773C128.553 328.686 125.443 307.68 121.682 286.786C119.126 272.558 115.936 258.442 113.199 244.248C109.764 226.381 106.963 208.399 104.8 190.335C100.16 150.039 99.8067 109.345 106.012 69.1993C107.342 61.1177 108.876 53.0709 110.611 45.0666C111.916 38.8661 113.351 32.7179 114.796 26.5508C115.617 23.0443 116.152 19.0197 117.703 15.7801C118.692 13.7161 120.019 12.168 121.965 10.972C123.321 10.1386 124.832 9.70959 126.409 9.56334C129.819 9.24727 133.42 9.43595 136.843 9.43585L157 9.51185L185.376 9.57653C190.427 9.58703 196.458 8.91795 201.379 10.1266C204.167 10.8115 206.478 12.67 207.899 15.1469C208.576 16.3267 209.044 17.6252 209.349 18.9486C210.586 24.3105 211.088 29.975 212.061 35.4067L218.466 69.599C223.491 97.3733 228.106 125.326 229.9 153.52C230.605 164.59 231.017 175.647 230.312 186.732C229.044 206.688 225.015 226.292 220.064 245.624C212.734 274.244 202.567 302.536 201.862 332.355C201.574 344.535 202.22 356.863 202.547 369.042C202.979 391.975 204.117 414.888 205.961 437.751C206.496 443.884 207.163 450.108 208.112 456.191C208.945 461.535 210.129 466.803 210.324 472.231C210.482 477.043 209.905 481.851 208.614 486.489C207.191 491.442 204.495 496.127 199.875 498.709C198.155 499.67 196.304 500.082 194.365 500.308C188.921 500.941 182.819 500.355 177.347 499.992C162.512 499.01 148.007 497.163 133.358 494.666L130.709 494.273Z" id="svg_1" class="" fill-opacity="1"/><path fill="#dff250" d="M167.329 23.9203C167.962 24.0866 168.538 24.2761 169.09 24.6377C179.838 31.6769 194.604 97.2972 198.21 112.377C200.341 121.283 202.597 130.169 204.553 139.116C210.985 168.529 210.586 253.336 194.741 278.057C193.687 279.348 192.561 280.632 191.121 281.501C189.677 282.371 188.053 282.698 186.407 282.264C182.191 281.15 178.474 276.057 176.314 272.518C153.497 235.134 156.774 117.628 159.125 72.396C159.533 64.5365 159.859 56.6812 160.378 48.8269C160.747 43.2579 160.985 37.726 162.334 32.2825C163.161 28.9481 164.237 25.7947 167.329 23.9203Z" id="svg_2" class="" fill-opacity="1"/><path fill="#dff250" d="M148.171 27.4193C149.106 27.6229 149.65 28.0164 150.177 28.8006C151.502 30.7708 151.861 33.6298 152.046 35.9542C152.436 40.8447 151.874 45.879 151.676 50.7778L151.051 71.2454C150.442 90.7854 150.149 110.334 150.172 129.883C150.105 143.924 150.304 157.964 150.77 171.997C151.269 185.32 152.153 198.626 153.421 211.898C154.31 222.132 155.298 232.331 155.824 242.593C156.221 250.324 156.694 258.229 155.174 265.88C154.481 269.37 153.383 273.247 150.192 275.274C148.273 276.493 146.084 276.603 143.903 276.123C137.942 274.81 134.393 269.544 131.31 264.742C130.609 263.503 129.932 262.251 129.278 260.987C121.939 246.857 117.886 230.342 114.885 214.806C109.698 187.958 107.391 158.48 111.147 131.276C113.746 112.458 119.41 92.508 125.181 74.368C128.392 64.2768 138.461 32.4338 148.171 27.4193Z" id="svg_3" class="" fill-opacity="1"/><path fill="#6d6d6d" d="M362.181 9.36746C364.315 9.00179 367.079 9.50245 369.274 9.52509C372.831 9.5618 376.491 9.08685 380.027 9.61633C381.429 9.82631 382.639 10.2546 383.855 10.9747C385.515 11.9573 386.954 13.1819 387.875 14.9066C389.904 18.702 390.55 23.8894 391.506 28.0605C392.75 33.4868 394.014 38.8955 395.173 44.3419C397.869 56.4895 400.026 68.7506 401.637 81.0891C406.499 119.447 405.168 158.241 400.452 196.542C398.261 213.596 395.509 230.574 392.201 247.448C390.027 258.634 387.557 269.764 385.45 280.964C380.258 308.103 376.328 335.468 373.672 362.971C372.346 377.453 370.077 391.344 373.809 405.706C374.849 409.733 376.57 413.551 378.898 416.997C385.916 427.358 395.396 427.68 406.565 430.628L433.472 437.725C438.156 438.928 443.866 439.816 448.034 442.303C453.703 445.685 457.788 451.888 459.297 458.241C460.288 462.413 460.408 467.044 458.02 470.789C456.784 472.741 454.963 474.253 452.816 475.109C450.53 476.023 448.071 476.162 445.677 476.616C443.863 476.959 442.062 477.482 440.276 477.947C424.463 482.057 408.602 485.979 392.696 489.711C390.493 490.411 388.235 490.815 385.991 491.341C381.224 492.503 376.439 493.59 371.637 494.601C363.666 496.341 355.577 498.451 347.493 499.526C335.894 501.069 324.924 500.518 315.258 493.039C308.896 488.159 304.664 481.011 303.444 473.086C302.284 465.898 303.7 460.375 304.361 453.355C304.949 447.209 305.316 441.044 305.462 434.872C306.069 410.409 305.195 386.039 304.613 361.594L304.163 337.382C304.023 330.022 303.903 322.783 302.904 315.471C300.514 297.965 295.517 280.984 290.83 263.992C285.342 244.099 279.916 223.834 277.326 203.328C270.748 151.237 283.119 92.8786 292.734 41.5275C293.649 36.7123 294.521 31.8891 295.351 27.0583C295.826 24.1798 296.111 21.1464 296.837 18.3244C297.202 16.9064 297.745 15.1704 298.682 14.0425C300.328 12.0609 302.82 10.3691 305.328 9.78799C308.085 9.14926 311.293 9.68907 314.124 9.61655C324.938 9.33959 335.823 9.46833 346.643 9.4889C351.674 9.49846 356.846 9.779 361.858 9.3948L362.181 9.36746Z" id="svg_4" class="" fill-opacity="1"/><path fill="#dff250" d="M336.586 24.0087C337.608 24.3484 338.226 24.7583 338.911 25.6017C341.237 28.4653 342.156 33.5066 342.714 37.0497C343.319 40.8911 343.466 44.8072 343.711 48.6845L344.809 67.9854C346.428 99.2622 346.935 130.587 346.327 161.9C345.964 175.451 345.223 188.99 344.106 202.5C342.474 221.85 337.741 266.595 321.852 279.809C320.236 281.154 318.248 282.221 316.082 281.951C313.444 281.621 311.72 279.65 310.155 277.705C308.505 275.175 307.218 272.485 306.151 269.662C295.331 241.034 294.038 180.812 297.66 150.26C299.184 137.406 302.877 124.693 305.891 112.113C309.7 95.6785 313.919 79.3418 318.543 63.118C321.313 53.5945 324.167 43.8647 328.236 34.8033C330.02 30.8313 332.235 25.6604 336.586 24.0087Z" id="svg_5" class="" fill-opacity="1"/><path fill="#dff250" d="M355.316 27.3874C355.909 27.4545 356.472 27.6601 356.99 27.9556C366.631 33.4573 379.552 75.9155 382.865 87.4102C387.109 102.132 391.385 117.965 393.184 133.185C397.658 171.057 391.001 230.738 372.468 264.284C370.691 267.272 368.621 270.319 366.024 272.659C363.485 274.946 359.756 276.704 356.267 276.406C354.31 276.24 352.641 275.039 351.439 273.549C344.624 265.104 348.522 234.961 349.537 223.823C350.663 211.457 351.963 199.076 352.635 186.676C353.963 157.514 354.305 128.316 353.66 99.1307C353.433 85.1921 353.07 71.256 352.571 57.3245C352.332 50.1816 351.396 41.971 352.144 34.9479C352.449 32.0841 352.984 29.292 355.316 27.3874Z" id="svg_6" class="selected" fill-opacity="1"/></g></svg>