<svg xmlns="http://www.w3.org/2000/svg" xmlns:xlink="http://www.w3.org/1999/xlink" width="512" height="512" style=""><rect id="backgroundrect" width="100%" height="100%" x="0" y="0" fill="none" stroke="none"/>
	
	
	
	
	
	
	
	
	
<g class="currentLayer" style=""><title>Layer 1</title><path fill="#6d6d6d" d="M35.1678 28.8779C41.1927 27.751 47.2492 28.3899 53.2982 29.0014C71.4868 30.84 91.3745 34.7693 106.711 45.2475C132.445 62.8301 151.449 110.34 159.978 139.638C163.622 140.405 167.229 141.172 170.754 142.399C190.645 149.321 206.602 164.369 217.881 181.797C219.975 185.032 221.788 188.479 223.553 191.902C224.574 193.882 225.506 196.156 226.843 197.921C230.141 198.273 233.351 199.337 236.465 200.452C253.518 206.557 268.821 219.412 280.162 233.334C288.872 244.027 296.113 256.224 302.869 268.222C319.759 298.22 337.425 334.595 375.911 338.881C379.818 339.316 383.985 339.161 387.83 338.313C393.347 337.098 397.337 335.26 403.311 335.336C405.761 335.368 408.369 335.902 410.744 336.485C413.587 337.182 416.366 338.201 419.167 339.059C423.134 340.274 427.132 341.402 431.116 342.564C438.689 344.772 447.145 346.757 454.46 349.506C455.703 349.973 457.565 350.68 458.384 351.733C459.419 353.062 459.654 354.955 459.352 356.567C458.57 360.73 455.199 365.061 451.694 367.338C449.14 368.998 446.036 369.931 443.002 370.079C437.51 370.347 423.209 366.909 416.941 365.694C409.308 373.045 399.878 380.598 389.642 383.743C387.153 384.508 384.685 384.756 382.144 385.227C397.208 386.702 409.759 384.836 421.793 374.986C423.109 373.909 424.365 372.738 425.591 371.56C438.526 381.123 451.382 390.791 464.158 400.565C468.751 404.028 473.383 407.421 477.945 410.927C479.75 412.314 481.766 413.621 483.389 415.217C484.136 415.951 484.65 416.82 484.837 417.859C485.092 419.274 484.399 420.458 483.547 421.535C481.005 424.746 476.112 426.324 472.157 426.65C469.431 426.874 466.521 426.539 463.945 425.601C459.439 423.961 455.02 420.775 450.869 418.369C444.134 414.505 437.419 410.606 430.725 406.672C427.11 404.557 423.526 402.284 419.839 400.301C422.158 402.668 424.654 404.847 427.022 407.165L457.319 436.485C460.825 439.937 464.99 443.203 468.153 446.927C469.042 447.974 469.877 448.918 469.826 450.363C469.788 451.451 469.381 452.365 468.861 453.301C464.536 456.299 459.468 457.383 454.273 456.419C451.437 455.893 449.061 454.881 446.714 453.208C441.917 449.79 437.65 444.803 433.43 440.671L418.997 426.732C414.613 422.43 410.322 417.979 405.811 413.816L432.933 455.584C434.991 458.82 437.079 462.038 439.194 465.237C440.807 467.64 442.621 470.04 443.957 472.603C444.423 473.498 444.728 474.36 444.457 475.375C444.25 476.148 443.841 476.885 443.42 477.56C439.834 479.838 435.459 480.045 431.384 479.159C428.768 478.59 426.098 477.387 424.02 475.687C419.876 472.299 415.806 466.482 412.354 462.318L392.399 438.314C389.327 434.641 386.396 430.739 383.138 427.243C384.743 430.286 386.553 433.205 388.209 436.219L404.936 466.814C407.179 470.983 410.196 475.2 411.844 479.639C412.144 480.445 412.28 481.302 411.969 482.13C411.494 483.399 410.04 484.261 408.815 484.651C404.951 485.879 399.739 484.936 396.256 482.986C394.086 481.772 392.443 480.197 390.891 478.277C387.288 473.818 384.16 468.795 380.909 464.067L363.632 438.991L344.516 411.404C341.32 406.772 337.813 402.178 334.948 397.347C329.395 387.981 329.878 378.854 321.027 370.68C318.633 368.458 315.907 366.623 312.948 365.242C307.408 362.675 301.154 361.131 295.326 359.29C284.889 355.995 274.357 352.721 264.03 349.112C245.748 342.723 226.217 335.709 209.734 325.417C191.82 314.232 175.485 296.841 165.344 278.288C164.003 275.847 162.754 273.357 161.6 270.823C160.322 267.954 159.228 263.785 157.284 261.403C155.261 258.926 150.467 255.659 147.804 253.517C140.658 247.783 133.54 242.012 126.452 236.205C126.286 238.571 125.494 240.899 124.838 243.168C122.036 252.864 118.167 263.613 112.131 271.778C109.643 275.143 106.597 277.823 103.831 280.919C96.7193 288.883 91.9067 298.676 90.5835 309.309C89.6484 316.824 90.143 324.52 90.3161 332.072C90.4845 340.352 90.5773 348.633 90.5946 356.915C90.634 361.225 90.8799 365.551 90.7516 369.859C90.6109 374.581 89.6172 379.251 88.8368 383.903L85.6174 403.343L81.4901 428.391C80.5368 434.131 79.9092 440.292 77.9048 445.778C75.3292 452.828 71.1189 459.395 65.4426 464.344C61.2383 468.009 50.1007 475.589 44.8579 477.372C42.7677 478.087 40.553 478.365 38.3511 478.189C33.7584 477.861 29.6931 475.94 26.692 472.415C24.6032 469.961 22.7599 466.491 22.5631 463.244C22.3156 459.159 22.4444 454.997 22.4348 450.904L22.4632 429.357L22.4465 383.768L22.4713 228.963L22.4552 103.69L22.4882 62.0829C22.5151 56.3354 22.0677 50.4926 22.5678 44.7662C23.063 39.0959 25.4214 35.2615 29.7282 31.6707C31.4739 30.491 33.2176 29.6571 35.1678 28.8779Z" id="svg_1" class="" fill-opacity="1"/><path fill="#919191" d="M35.0875 102.531C40.543 102.155 45.7406 104.51 50.3966 107.156C66.4674 116.29 84.8746 136.742 91.0625 154.239C92.4821 158.253 92.958 162.369 93.8142 166.512C94.5489 170.067 95.6687 173.555 96.9063 176.965C98.3138 180.904 99.9345 184.765 101.761 188.529C103.607 192.265 106.196 196.323 107.31 200.337C107.289 200.429 107.27 200.521 107.248 200.612C106.904 202.007 106.404 203.925 105.106 204.744C102.651 206.295 96.4171 206.231 93.2037 207.04C87.8814 208.38 83.0487 210.586 78.3472 213.39C75.34 215.301 72.5294 217.505 69.9566 219.97C64.5609 225.094 60.9151 229.877 53.7642 232.867C48.2869 235.158 39.0974 236.408 33.5111 233.985C31.3509 233.048 29.5669 231.263 28.7345 229.048C27.5064 225.781 28.2076 205.483 28.2058 200.481L28.2013 146.083L28.1907 121.885C28.2001 118.425 28.0718 114.923 28.2125 111.469C28.2713 110.025 28.5431 108.558 29.1672 107.247C30.3822 104.696 32.5242 103.427 35.0875 102.531Z" id="svg_2" class="" fill-opacity="1"/><path fill="#919191" d="M107.418 139.693C115.65 142.443 124.163 144.338 132.647 146.137C136.829 147.024 141.147 147.721 145.26 148.878C153.837 157.266 162.058 166.14 170.382 174.784C176.147 180.772 183.026 186.967 187.751 193.761C191.005 198.44 193.164 203.399 194.807 208.842C196.987 216.062 198.88 223.383 200.935 230.64C202.116 234.812 204.013 239.463 204.43 243.76C204.607 245.571 204.303 247.425 203.395 249.015C202.172 251.157 200.042 252.307 197.72 252.897C196.228 253.022 194.884 252.892 193.435 252.549C190.555 251.866 187.768 250.684 185.044 249.545C160.499 239.285 138.57 216.033 122.623 195.351C119.426 191.206 116.036 186.991 113.303 182.52C109.927 176.995 107.202 168.581 104.688 162.406C103.426 159.306 101.632 156.071 100.858 152.828C100.423 151.009 100.358 149.251 100.834 147.432C101.771 143.851 104.324 141.471 107.418 139.693Z" id="svg_3" class="" fill-opacity="1"/><path fill="#919191" d="M57.7145 46.1055C71.5555 45.5106 86.7319 48.4606 98.4989 55.8703C126.106 73.2548 137.913 112.879 144.648 142.783C139.044 141.022 133.401 139.431 127.811 137.612C113.207 132.344 94.7348 125.58 83.5672 114.46C81.2282 112.131 79.2974 109.4 77.1219 106.921C73.7267 103.052 69.8118 99.3844 65.7774 96.1914C62.0177 93.2157 58.0628 90.302 53.9625 87.8131C50.183 85.5189 45.9095 83.6358 42.587 80.6976C38.8226 77.3633 36.5662 72.6488 36.3304 67.6257C36.0598 62.2631 37.8077 56.5992 41.4567 52.5989C45.8448 47.7883 51.4439 46.4387 57.7145 46.1055Z" id="svg_4" class="" fill-opacity="1"/><path fill="#dff250" d="M227.632 215.025C231.716 214.52 241.534 219.753 245.396 221.699C283.056 240.676 289.054 271.505 311.72 303.018C315.972 308.905 320.515 314.574 325.333 320.006C327.334 322.28 329.636 324.349 331.53 326.703C332.224 327.565 332.845 328.48 333.162 329.552C333.483 330.636 333.481 331.971 332.859 332.955C332 334.316 330.255 335.087 328.742 335.378C315.222 331.741 302.032 326.972 289.312 321.122C258.083 306.49 240.706 288.077 228.99 255.706C226.413 248.585 219.995 224.96 223.273 218.42C224.251 216.469 225.645 215.727 227.632 215.025Z" id="svg_5" class="" fill-opacity="1"/><path fill="#dff250" d="M177.793 256.669C179.344 256.737 187.831 260.443 190.466 261.157C198.64 263.371 207.293 262.466 214.906 266.744C225.945 272.946 233.842 285.796 241.875 295.381C247.381 301.952 253.647 308.204 260.732 313.068C271.337 320.348 283.354 326.366 295.19 331.353C300.273 333.494 305.536 335.523 310.863 336.963C314.095 337.837 317.836 338.226 320.921 339.447C321.955 339.856 322.991 340.821 323.718 341.638C324.813 342.868 325.654 344.241 325.541 345.932C325.141 346.625 325.098 346.606 324.344 346.896C323.323 346.952 322.3 346.962 321.279 346.923C311.698 346.59 301.903 345.372 292.706 342.58C284.241 340.01 274.954 335.451 266.828 331.787C246.991 322.842 207.536 305.176 193.519 290.002C191.083 287.368 188.853 284.549 186.851 281.572C184.125 277.517 176.029 263.146 176.39 258.668C176.469 257.691 177.091 257.235 177.793 256.669Z" id="svg_6" class="" fill-opacity="1"/><path fill="#b6b6b6" d="M111.786 226.989C113.049 227.068 114.251 227.336 115.261 228.145C116.044 228.773 116.448 229.611 116.497 230.607C116.634 233.4 114.923 236.789 114.037 239.422C107.77 258.056 97.875 276.433 84.2729 290.762C81.3795 293.81 75.5751 299.974 71.7035 301.346C70.8461 301.649 69.8155 301.618 68.9131 301.641C67.3333 301.132 65.8972 300.286 64.9715 298.867C63.9274 297.266 64.1294 295.527 64.5665 293.746C66.0324 287.771 71.06 273.339 74.0976 268.314C75.2077 266.477 76.6313 264.747 78.0232 263.118C83.4679 256.744 89.3754 250.681 95.0389 244.494C98.5647 240.643 108.282 229.127 111.786 226.989Z" id="svg_7" class="" fill-opacity="1"/><path fill="#b6b6b6" d="M169.8 162.189C170.771 162.168 171.713 162.399 172.64 162.672C189.523 167.642 202.401 183.698 210.566 198.592C216.008 208.518 217.235 213.334 216.251 224.674C216.011 227.444 215.888 230.513 215.109 233.182C214.969 233.244 214.831 233.309 214.691 233.369C213.945 233.691 213.102 233.95 212.331 233.551C211.098 232.914 208.923 226.129 208.249 224.374C202.993 210.675 196.428 193.084 186.876 182.072C182.605 177.192 177.968 172.645 173.005 168.47C171.858 167.497 169.028 165.62 168.69 164.135C168.797 163.291 169.279 162.817 169.8 162.189Z" id="svg_8" class="" fill-opacity="1"/><path fill="#b6b6b6" d="M120.657 203.844C120.988 203.894 121.323 203.929 121.645 204.024C123.078 204.446 126.752 209.374 127.932 210.699C135.292 218.815 143.034 226.575 151.133 233.952C152.792 235.477 159.074 240.501 159.813 242.222C159.986 242.625 159.629 243.266 159.491 243.672C157.863 243.812 156.045 242.994 154.577 242.341C145.645 238.366 132.819 228.574 127.09 220.359C124.375 216.465 122.363 211.825 120.713 207.384C120.199 206 120.041 205.198 120.657 203.844Z" id="svg_9" class="" fill-opacity="1"/></g></svg>