<svg xmlns="http://www.w3.org/2000/svg" xmlns:xlink="http://www.w3.org/1999/xlink" width="512" height="512"><rect id="backgroundrect" width="100%" height="100%" x="0" y="0" fill="none" stroke="none"/>
	
	
	
	
	
	
	
	
	
	
	
	
	
	
	
	
<g class="currentLayer" style=""><title>Layer 1</title><path fill="#6d6d6d" d="M254.717 370.266C248.412 409.015 241.192 448.417 224.213 484.142C222.519 487.705 219.495 494.976 216.392 497.281C214.837 498.435 212.811 498.901 210.909 499.025C205.348 499.388 199.564 498.96 193.983 498.899L164.124 498.786L135.733 498.754C130.674 498.759 124.982 499.286 120.02 498.425C118.221 498.113 116.294 496.661 115.272 495.179C114.533 494.106 114.148 492.945 113.915 491.672C113.12 487.321 113.036 482.709 112.446 478.3C111.424 470.667 109.946 463.059 108.654 455.464C100.251 406.067 91.9883 356.585 89.1931 306.488C88.252 289.621 87.6283 272.478 88.4774 255.596C89.5632 234.012 92.6573 212.888 97.0661 191.751C101.613 169.952 108.692 148.37 117.041 127.751C119.034 122.938 121.159 118.18 123.414 113.483C124.624 110.955 126.276 108.318 127.132 105.656C127.861 103.384 127.609 100.692 127.587 98.3218C127.389 77.1826 126.521 56.0312 126.532 34.8948C126.534 29.9732 125.737 22.8351 126.37 18.3411C126.696 16.0307 127.69 13.7176 129.713 12.4098C131.225 11.4332 133.293 10.8634 135.088 10.8274C139.149 10.7458 143.227 10.8855 147.292 10.8598L198.25 10.8762L311.425 10.8779L357.613 10.8344L369.936 10.8502C372.717 10.8351 376.22 10.4263 378.905 11.0384C380.847 11.4811 383.394 12.7924 384.464 14.5447C385.265 15.8548 385.57 17.6884 385.684 19.2003C386.095 24.6922 385.532 30.5077 385.498 36.031C385.397 52.3871 384.897 68.7451 384.64 85.1009C384.553 90.5808 384.001 98.7715 384.505 103.91C384.834 107.272 390.548 117.337 392.206 121.192C395.011 127.855 397.683 134.573 400.219 141.343C405.656 156.208 410.189 171.389 413.794 186.801C418.89 208.723 422.122 231.036 423.454 253.503C423.852 261.322 423.761 269.237 423.739 277.066C423.585 332.914 414.831 388.7 405.39 443.617C403.411 454.851 401.544 466.104 399.788 477.375C399.395 480.063 398.993 482.762 398.706 485.463C398.462 487.76 398.496 490.281 397.849 492.5C397.257 494.531 396.519 496.332 394.573 497.359C393.11 498.131 391.494 498.483 389.861 498.65C384.981 499.147 378.117 498.816 373.076 498.762C367.247 498.701 361.407 498.889 355.581 498.749C354.086 498.692 352.589 498.782 351.095 498.839C338.915 498.592 326.694 498.936 314.51 498.97C309.989 498.982 305.239 499.358 300.747 498.979C299.215 498.85 297.741 498.651 296.433 497.781C292.277 495.02 288.577 485.907 286.481 481.263C273.799 453.158 266.296 422.666 260.968 392.372C259.8 385.733 258.697 379.061 257.675 372.399C257.308 370.009 257.211 367.568 256.764 365.195L256.72 364.968C256.55 363.237 256.416 361.497 256.101 359.784C255.435 363.252 255.039 366.75 254.717 370.266Z" id="svg_1" class="" fill-opacity="1"/><path fill="#dff250" d="M154.885 66.5646C164.97 65.6444 176.873 67.1073 186.734 69.2872C213.161 75.1293 235.914 90.0756 250.533 113.014C250.757 116.54 250.546 120.215 250.548 123.755L250.552 145.793L250.556 179.346C250.563 185.806 250.712 192.304 250.547 198.759C250.524 199.662 250.507 200.691 250.107 201.514C250.056 201.62 249.998 201.723 249.945 201.829C245.645 210.478 237.78 218.426 230.231 224.265C224.746 228.281 218.539 231.381 211.917 232.986C199.908 235.896 185.25 233.941 174.656 227.445C160.615 218.835 154.265 199.932 150.599 184.674C143.535 155.281 143.295 121.701 144.515 91.5817C144.735 86.1432 144.295 76.0263 147.159 71.5675C148.983 68.7261 151.695 67.3276 154.885 66.5646Z" id="svg_2" class="" fill-opacity="1"/><path fill="#dff250" d="M343.234 66.6081C347.624 66.2901 354.426 65.6425 358.477 67.6177C361.131 68.8962 363.159 71.19 364.101 73.9812C365.768 78.8216 365.521 89.7953 365.725 95.375C366.953 128.948 366.213 178.007 351.4 208.282C346.015 219.289 338.82 227.287 327.047 231.286C313.716 235.814 300.262 235.282 287.617 228.991C283.777 226.979 280.163 224.562 276.838 221.781C272.214 217.935 260.043 205.526 259.556 199.134C259.298 195.753 259.504 192.214 259.508 188.819L259.536 168.979L259.516 130.181C259.514 126.824 258.989 116.082 259.828 113.285C260.976 109.457 266.816 102.923 269.617 99.7631C288.237 78.7584 315.656 68.2589 343.234 66.6081Z" id="svg_3" class="selected" fill-opacity="1"/><path fill="#919191" d="M323.002 244.543C324.505 244.454 325.991 244.433 327.454 244.843C330.241 245.624 332.576 247.426 333.931 249.999C336.197 254.305 336.55 265.712 337.026 270.944C339.096 295.823 339.684 320.802 338.788 345.75C337.616 383.502 334.448 421.165 329.297 458.581L327.401 472.244C326.993 475.124 326.766 478.222 325.855 480.987C325.309 482.642 324.429 483.734 322.829 484.487C321.356 485.18 319.446 485.392 317.919 484.751C315.1 483.568 314.054 480.253 312.967 477.655L298.376 441.716C295.631 434.879 292.429 428.087 290.466 420.98C288.358 413.29 287.674 405.279 288.448 397.342C289.2 389.385 291.047 381.388 292.497 373.521L299.314 336.107L309.328 281.094C310.978 272.017 312.384 262.812 314.325 253.797C314.639 252.337 315.027 250.825 315.793 249.53C317.413 246.793 319.984 245.277 323.002 244.543Z" id="svg_4" class="" fill-opacity="1"/><path fill="#919191" d="M183.794 244.558C185.775 244.434 187.48 244.538 189.357 245.294C191.831 246.289 193.853 248.212 194.851 250.698C196.741 255.41 197.322 261.915 198.237 266.971L203.67 296.926L215.33 360.934C217.435 372.504 220.049 384.215 221.524 395.872C222.201 401.227 222.142 406.837 221.465 412.197C220.082 423.141 215.205 433.157 211.126 443.281L198.456 474.427C197.564 476.701 196.76 479.139 195.609 481.293C194.715 482.965 193.428 484.467 191.523 484.953C189.91 485.365 188.057 485.021 186.661 484.13C184.967 483.049 184.226 481.309 183.799 479.412C182.754 474.772 182.411 469.8 181.753 465.084C180.293 454.932 178.988 444.758 177.837 434.566C171.781 380.82 168.313 324.822 173.095 270.815C173.544 265.747 174.184 252.748 176.672 248.984C178.341 246.46 180.924 245.186 183.794 244.558Z" id="svg_5" class="" fill-opacity="1"/><path fill="#919191" d="M159.459 235.77C160.204 235.719 160.954 235.666 161.695 235.787C163.76 236.122 165.786 237.323 166.943 239.083C167.811 240.403 168.038 241.802 168.087 243.353C168.219 247.484 167.405 251.999 167.013 256.135C166.275 263.754 165.602 271.381 164.993 279.012C162.769 304.79 160.664 330.765 159.684 356.624C159.362 365.106 159.094 373.637 158.991 382.124C158.927 387.379 159.108 392.638 158.962 397.893C158.715 407.553 157.575 417.169 155.557 426.618C152.564 440.388 148.323 453.856 142.886 466.856C141.955 469.108 141.081 472.002 139.732 473.999C139.184 474.811 138.495 475.495 137.659 476.009C136.152 476.92 134.332 477.16 132.64 476.672C130.646 476.109 129.459 474.868 128.474 473.107C127.668 470.432 127.321 467.5 126.85 464.745C125.999 459.719 125.174 454.688 124.374 449.654C121.544 432.582 119.141 415.442 117.167 398.249C116.116 388.447 114.942 378.446 115.622 368.572C116.358 357.879 120.138 345.124 123.026 334.694C130.146 309.902 137.996 285.326 146.567 260.997L150.724 249.037C151.837 245.788 152.816 242.281 154.479 239.266C155.576 237.276 157.352 236.4 159.459 235.77Z" id="svg_6" class="" fill-opacity="1"/><path fill="#919191" d="M348.207 235.79C349.012 235.734 349.815 235.707 350.617 235.816C352.562 236.088 354.297 237.178 355.385 238.812C357.448 241.858 359.669 249.749 360.96 253.472C364.546 263.75 368.057 274.055 371.492 284.385C376.799 300.08 381.73 315.901 386.28 331.832C389.56 343.307 393.157 355.452 394.342 367.351C395.64 380.38 393.308 396.553 391.606 409.688C388.883 430.135 385.758 450.527 382.232 470.852C382.057 471.764 381.836 472.651 381.411 473.484C380.668 474.936 379.669 476.046 378.07 476.496C376.223 477.017 374.278 477.095 372.581 476.079C371.559 475.468 370.793 474.532 370.182 473.525C368.806 471.258 367.905 468.471 366.902 466.017C362.886 456.296 359.524 446.319 356.838 436.151C354.268 426.624 352.534 416.892 351.653 407.064C350.962 398.792 351.215 390.497 351.138 382.205C351.052 373.068 350.693 363.906 350.335 354.775C349.221 326.389 346.807 297.941 344.327 269.644L342.962 254.385C342.608 250.736 342.03 246.938 342.109 243.271C342.138 241.915 342.232 240.552 342.959 239.37C344.161 237.417 346.05 236.357 348.207 235.79Z" id="svg_7" class="" fill-opacity="1"/><path fill="#b6b6b6" d="M128.914 161.482C129.586 161.463 130.483 161.355 131.114 161.609C132.05 161.985 132.71 163.12 133.149 163.964C134.837 167.212 135.608 171.586 136.697 175.116C140.163 186.347 149.969 216.673 149.229 226.868C148.935 230.926 147.256 235.411 146.004 239.286C143.37 247.191 140.611 255.054 137.73 262.873C130.49 282.866 122.828 302.753 116.15 322.941C115.224 325.526 114.751 328.944 113.178 331.194C112.654 331.943 111.941 332.492 110.991 332.541C110.166 332.583 109.249 332.281 108.703 331.651C106.997 329.686 107.322 323.387 107.141 320.864C105.185 296.334 105.297 271.684 107.477 247.173C109.476 222.034 114.758 197.264 123.186 173.495C124.449 169.979 125.999 163.921 128.914 161.482Z" id="svg_8" class="" fill-opacity="1"/><path fill="#b6b6b6" d="M378.901 161.491C379.518 161.47 380.265 161.39 380.86 161.573C381.72 161.837 382.335 162.695 382.802 163.41C385.188 167.066 387.765 175.667 389.29 180.204C403.181 221.519 405.788 266.58 403.687 309.832C403.483 314.105 403.221 318.375 402.902 322.641C402.739 324.968 402.751 327.514 402.209 329.783C401.952 330.857 401.171 332.199 400.143 332.695C399.588 332.964 399.089 332.9 398.55 332.64C396.165 331.487 395.213 326.81 394.485 324.444C387.523 302.914 379.191 281.782 371.519 260.496C368.098 251.004 362.765 237.801 361.068 228.185C360.582 225.431 361.121 222.48 361.54 219.744C363.681 205.732 368.855 189.832 373.071 176.188C374.384 171.941 375.406 167.01 377.443 163.087C377.82 162.361 378.249 161.972 378.901 161.491Z" id="svg_9" class="" fill-opacity="1"/><path fill="#b6b6b6" d="M259.487 30.7039C268.509 30.8793 277.566 30.7239 286.592 30.7228L338.514 30.7319C337.831 36.926 338.828 47.4954 335.698 52.7537C331.871 59.1822 325.714 58.2582 319.339 58.8732C316.035 59.192 312.891 59.8073 309.685 60.6462C292.135 65.8581 283.042 76.0962 269.534 87.392C268.033 88.647 266.041 90.3237 263.954 90.0485C262.118 89.8065 260.907 88.4104 259.847 87.0351C258.898 82.8524 259.495 73.936 259.497 69.2893L259.487 30.7039Z" id="svg_10" class="" fill-opacity="1"/><path fill="#b6b6b6" d="M171.572 30.7291L250.581 30.7319L250.598 69.1741C250.6 73.6387 251.076 82.2404 250.429 86.2392C250.28 87.1601 249.562 87.9395 249.013 88.6586C248.109 89.2736 247.227 89.9204 246.11 90.0422C244.843 90.1802 243.537 89.5388 242.504 88.8724C240.095 87.3167 237.99 85.0984 235.819 83.2274C230.233 78.4128 224.551 73.0863 218.452 68.9459C213.657 65.7441 208.451 63.204 202.976 61.3944C199.786 60.3444 196.412 59.5414 193.079 59.1068C187.679 58.4028 181.348 59.4479 176.897 55.6997C175.154 54.2313 173.948 52.3033 173.225 50.1537C171.814 45.9648 171.907 35.6453 171.572 30.7291Z" id="svg_11" class="" fill-opacity="1"/><path fill="#b6b6b6" d="M238.365 233.019C239.175 233.015 239.898 233.1 240.654 233.418C241.723 233.869 242.62 234.69 242.995 235.804C243.175 236.34 243.223 236.847 243.205 237.41C243.061 242.092 242.364 246.926 241.95 251.606L239.139 282.638L234.188 337.276C233.408 345.849 232.761 354.446 231.866 363.007C231.713 364.474 231.702 367.726 230.913 368.859C230.526 369.414 229.512 369.895 228.861 370.014C228.006 370.17 227.079 370.017 226.397 369.456C224.251 367.695 224.368 361.716 224.075 358.993C223.222 348.942 221.747 338.831 220.412 328.832C218.218 311.925 215.55 295.083 212.411 278.326C211.589 274.183 210.691 270.056 209.717 265.947C208.926 262.739 207.691 259.272 207.462 255.986C207.353 254.416 207.567 252.928 208.083 251.444C208.853 249.154 210.277 247.141 212.181 245.653C215.239 243.223 222.531 240.769 226.372 238.994C230.435 237.117 234.336 234.954 238.365 233.019Z" id="svg_12" class="" fill-opacity="1"/><path fill="#b6b6b6" d="M270.32 232.987C270.564 232.996 270.808 233.003 271.051 233.031C271.643 233.1 272.176 233.275 272.722 233.513C276.601 235.208 280.318 237.423 284.183 239.199C288.406 241.14 293.082 242.663 297.076 245.032C298.324 245.772 299.363 246.837 300.231 247.992C302.046 250.407 302.851 253.161 302.607 256.167C302.257 260.475 300.593 264.888 299.637 269.118C298.117 276.143 296.741 283.197 295.51 290.278C291.627 312.165 289.106 334.244 286.33 356.286C286.041 358.916 285.702 366.817 284.488 368.695C283.996 369.456 283.124 369.895 282.244 370.032C281.341 370.173 280.421 369.939 279.73 369.334C278.943 368.644 278.758 367.761 278.621 366.765C278.131 363.225 277.946 359.593 277.622 356.029L275.375 330.541C272.35 299.135 269.32 267.666 266.873 236.209C267.78 234.486 268.543 233.801 270.32 232.987Z" id="svg_13" class="" fill-opacity="1"/><path fill="#919191" d="M140.219 30.7147C148.774 30.9107 157.375 30.7154 165.936 30.7418C166.887 37.8889 167.535 45.0831 168.262 52.2557C167.549 53.7098 166.819 54.8082 165.698 55.9713C164.069 56.9664 162.526 57.4354 160.637 57.6297C156.759 58.0286 148.592 59.4712 145.636 56.947C144.493 55.9708 143.689 54.6073 143.211 53.1942C141.68 48.6649 140.647 35.8144 140.219 30.7147Z" id="svg_14" class="" fill-opacity="1"/><path fill="#919191" d="M344.125 30.7147L369.78 30.7575C369.728 35.4904 368.223 49.4678 366.801 53.6762C366.493 54.5866 365.969 55.3296 365.406 56.0981C365.35 56.1554 365.295 56.2148 365.237 56.2701C363.49 57.9257 361.588 58.5396 359.191 58.4511C355.287 58.3071 346.187 58.043 343.624 55.1545C342.829 54.2595 342.348 53.1373 342.18 51.9567C341.596 47.8395 343.697 35.6976 344.125 30.7147Z" id="svg_15" class="" fill-opacity="1"/><path fill="#4E5160" fill-opacity="0.011764706" d="M256.101 359.784C256.416 361.497 256.55 363.237 256.72 364.968C256.683 365.119 256.643 365.269 256.61 365.421C256.292 366.907 257.254 368.769 256.235 370.077C255.881 370.156 255.536 370.216 255.181 370.278C255.083 370.295 254.988 370.323 254.892 370.345L254.717 370.266C255.039 366.75 255.435 363.252 256.101 359.784Z" id="svg_16"/></g></svg>