<svg xmlns="http://www.w3.org/2000/svg" xmlns:xlink="http://www.w3.org/1999/xlink" width="512" height="512"><rect id="backgroundrect" width="100%" height="100%" x="0" y="0" fill="none" stroke="none"/>
	
	
	
	
	
	
	
	
	
	
	
	
	
	
	
	
	
<g class="currentLayer" style=""><title>Layer 1</title><path fill="#6d6d6d" d="M181.414 500.229C165.869 499.591 150.187 500.008 134.619 499.842C130.052 499.794 123.036 500.37 118.749 499.536C117.267 499.248 115.848 498.361 114.843 497.249C113.942 496.251 113.274 494.974 112.936 493.674C112.19 490.806 112.323 487.596 111.976 484.651C111.424 479.964 110.536 475.185 109.68 470.537C99.4818 415.164 89.2831 359.571 87.4136 303.165C86.9215 288.316 86.7193 273.314 87.8791 258.489C90.5536 221.215 98.5767 184.52 111.702 149.531C114.47 141.947 117.723 134.47 121.067 127.12C122.436 124.112 125.795 118.541 126.403 115.584C127.062 112.376 126.361 104.792 126.305 101.227L125.736 63.0357L125.409 34.1633C125.309 28.8591 124.429 20.2806 125.578 15.2703C125.925 13.7561 127.054 12.5257 128.205 11.5463C130.417 9.66532 133.243 9.6411 135.998 9.56048C142.509 9.36994 149.123 9.61026 155.642 9.64378L184.625 9.64838L284.38 9.66552L354 9.65081C358.635 9.67702 363.358 9.76737 367.984 9.6893C370.618 9.64484 373.428 9.2205 376.043 9.50948C378.947 9.83044 381.491 11.0692 383.228 13.4626C383.924 14.4206 384.348 15.4642 384.495 16.6403C384.861 19.5748 384.595 22.7039 384.544 25.6632L384.33 39.718L383.534 90.8277C383.474 95.212 383.542 99.6011 383.444 103.984C383.362 107.626 383.006 111.384 383.303 115.012C383.578 118.375 386.6 122.741 388.049 125.903C396.964 145.448 404.239 165.701 409.8 186.451C415.358 207.858 419.508 229.962 421.398 252.014C423.97 282.011 422.526 312.268 419.715 342.185C416.455 375.306 411.692 408.262 405.439 440.951C402.93 454.315 400.55 467.704 398.302 481.115C397.68 484.824 397.608 490.895 396.695 493.984C396.184 495.712 395.269 497.232 393.78 498.28C392.665 499.065 391.454 499.524 390.108 499.714C385.535 500.358 380.041 499.823 375.36 499.846C364.192 500.006 353.022 500.067 341.852 500.028C338.011 500.019 334.17 500.043 330.33 500.102C327.784 500.121 325.273 499.99 322.737 500.299L321.369 500.19L306.433 500.171L304.448 500.461C301.209 499.657 297.777 500.899 294.837 498.709C291.305 496.079 288.998 490.036 287.037 486.132C269.898 452.013 259.725 403.569 254.831 365.716C254.318 368.387 254.099 371.157 253.706 373.852C252.853 379.504 251.946 385.147 250.985 390.782C245.555 421.339 238.17 452.328 225.244 480.657C222.962 485.66 219.869 493.292 216.343 497.352C215.123 498.757 213.484 499.625 211.684 500.049C207.329 501.073 198.016 499.902 192.832 500.174L190.509 500.256C187.614 500.093 184.749 499.981 181.858 500.256L181.414 500.229Z" id="svg_1" class="" fill-opacity="1"/><path fill="#dff250" d="M344.87 133.808C346.019 133.773 347.04 133.869 348.124 134.276C350.626 135.214 352.059 137.185 353.137 139.53C355.178 143.97 356.691 148.839 358.374 153.439C361.945 163.121 365.339 172.867 368.554 182.672C375.478 203.88 381.877 225.974 384.249 248.205C385.307 258.119 385.394 268.282 385.443 278.244C385.508 291.614 384.881 305.296 382.108 318.412C379.5 330.75 374.889 342.448 371.021 354.412C368.872 361.06 367.586 368.685 365.16 375.04C363.29 379.937 359.931 383.164 355.214 385.309C354.945 385.414 354.676 385.52 354.403 385.614C349.753 387.219 344.778 387.017 340.362 384.796C334.89 382.044 332.204 377.251 330.388 371.608C315.77 324.912 311.891 275.517 319.041 227.111C321.671 209.574 325.935 192.378 329.897 175.108L334.866 153.384C335.839 149.091 336.934 141.417 338.916 137.801C340.259 135.351 342.328 134.519 344.87 133.808Z" id="svg_2" class="" fill-opacity="1"/><path fill="#dff250" d="M164.661 133.791C165.492 133.795 166.303 133.854 167.104 134.086C169.188 134.678 170.942 136.091 171.967 138C173.701 141.231 174.745 148.292 175.6 152.046L180.908 175.292C184.722 192.034 188.883 208.689 191.524 225.67C198.473 271.407 195.58 318.101 183.038 362.631C180.824 370.702 178.995 380.04 171.072 384.464C166.691 386.909 161.796 387.184 157.015 385.868C155.753 385.421 154.534 384.909 153.369 384.245C150.417 382.539 148.026 380.011 146.486 376.97C143.812 371.802 142.211 362.349 140.352 356.337C137.288 346.429 133.488 336.782 130.717 326.78C126.599 311.916 125.475 296.813 125.36 281.437C125.271 269.568 125.443 257.43 126.844 245.642C129.937 219.612 138.229 193.855 146.784 169.153C149.153 162.257 151.621 155.395 154.186 148.569C155.478 145.072 156.592 141.164 158.458 137.942C159.989 135.297 161.837 134.528 164.661 133.791Z" id="svg_3" class="" fill-opacity="1"/><path fill="#abbf3d" d="M204.8 293.927C205.006 293.946 205.212 293.971 205.416 294.002C206.206 294.128 206.675 294.441 207.125 295.104C208.732 297.475 211.416 307.431 212.467 310.806C221.018 338.384 224.719 367.236 223.408 396.079C222.999 405.127 221.949 414.172 221.016 423.178C220.263 430.435 219.848 440.409 218.316 447.217C216.739 454.244 212.405 460.342 206.288 464.142C199.387 468.466 192.111 469.004 184.331 467.239C178.808 465.418 174.061 462.516 170.451 457.881C167.158 453.636 165.175 448.523 164.745 443.167C164.453 439.691 165.081 436.255 165.648 432.839C167.382 422.393 170.12 412.376 175.313 403.073C179.024 396.424 184.075 390.686 187.576 383.927C191.035 377.251 193.543 369.685 195.43 362.419C199.381 347.212 201.409 331.341 202.419 315.673C202.839 309.172 202.421 302.342 203.304 295.91C203.444 294.886 204.036 294.518 204.8 293.927Z" id="svg_4" class="" fill-opacity="1"/><path fill="#c4d850" d="M303.692 293.912C304.235 294.017 304.858 294.141 305.361 294.373C306.082 294.707 306.313 295.255 306.424 296.013C307.027 300.126 306.704 304.621 306.948 308.803C307.447 319.054 308.375 329.279 309.729 339.453C312.001 355.576 315.713 373.497 324.202 387.603C326.286 391.067 328.822 394.233 331.071 397.588C334.522 402.805 337.343 408.413 339.477 414.293C342.287 422.019 345.421 434.96 344.9 443.035C344.692 446.45 343.817 449.791 342.324 452.87C338.913 460.05 333.153 464.396 325.808 467.055C322.467 468.036 319.24 468.518 315.75 468.246C308.455 467.629 301.703 464.143 296.976 458.553C294.529 455.664 292.75 452.271 291.765 448.616C290.034 442.374 289.958 435.432 289.291 428.993C286.983 406.695 284.875 385.471 286.968 362.99C288.838 342.918 293.082 323.812 299.19 304.635C300.164 301.577 301.233 295.954 303.692 293.912Z" id="svg_5" class="" fill-opacity="1"/><path fill="#919191" d="M265.598 17.8372C270.621 17.7736 275.645 17.7419 280.668 17.7423C283.893 17.7324 287.247 17.5318 290.446 17.9073C291.893 18.0708 293.306 18.4593 294.633 19.0587C297.583 20.4063 299.731 22.8342 300.749 25.9122C302.258 30.472 301.46 39.4254 301.466 44.4834C301.515 81.9743 294.87 112.222 277.67 145.651C275.459 149.964 273.37 154.445 270.941 158.631C270.037 160.19 268.647 161.789 266.82 162.22C265.523 162.526 264.272 162.159 263.181 161.437C262.15 160.756 261.33 159.767 261.097 158.534C260.28 154.213 260.835 149.113 260.828 144.694L260.83 115.076L260.83 57.4676C260.806 46.5478 260.475 35.5036 260.837 24.5944C260.886 23.1295 260.945 21.2072 261.799 19.9756C262.711 18.6589 264.089 18.1504 265.598 17.8372Z" id="svg_6" class="" fill-opacity="1"/><path fill="#919191" d="M219.757 17.8387C224.254 17.6265 228.809 17.7547 233.313 17.7554C236.961 17.7559 240.848 17.4862 244.448 18.0383C246.46 18.3468 247.221 19.0689 248.406 20.6893C249.315 25.4295 248.787 31.0057 248.776 35.8461L248.768 61.7322L248.823 155.153C248.811 157.207 248.832 159.444 247.197 160.936C246.066 161.967 244.504 162.391 242.998 162.246C241.512 162.102 240.672 161.338 239.772 160.221C237.24 156.321 235.303 151.914 233.159 147.785C222.008 126.309 213.943 104.418 210.469 80.3789C208.524 66.926 208.378 54.5385 208.284 41.0031C208.255 36.6815 207.752 31.7191 208.566 27.4805C208.909 25.6033 209.697 23.8359 210.866 22.3275C213.127 19.4232 216.239 18.285 219.757 17.8387Z" id="svg_7" class="" fill-opacity="1"/><path fill="#dff250" d="M200.02 159.981C200.205 159.977 200.389 159.978 200.573 159.982C201.99 160.025 202.732 160.684 203.668 161.692C205.137 163.273 206.325 165.23 207.556 167C209.861 170.345 212.183 173.679 214.522 177.001L227.137 194.867C229.853 198.719 232.741 202.543 235.143 206.602C236.719 209.265 237.927 211.936 238.724 214.926C240.97 223.354 239.219 233.066 238.614 241.659L236.901 265.764C235.356 286.756 233.586 307.795 232.461 328.81C232.386 329.962 232.446 331.525 231.944 332.572C231.624 333.237 231.298 333.559 230.613 333.805C230.17 333.648 229.985 333.518 229.675 333.146C229.181 332.553 228.846 331.714 228.6 330.99C226.966 326.165 225.598 321.211 224.095 316.342L215.077 287.286L209.451 269.205C208.427 265.889 207.167 262.478 206.524 259.074C205.911 255.833 205.8 252.326 205.489 249.037L203.65 229.336L198.869 179.464C198.572 176.288 196.974 164.572 197.514 162.255C197.778 161.125 199.111 160.496 200.02 159.981Z" id="svg_8" class="" fill-opacity="1"/><path fill="#dff250" d="M307.746 160.002C308.221 159.989 308.696 159.967 309.167 160.046C310.211 160.219 311.162 160.706 311.767 161.588C312.232 162.265 312.319 163.204 312.287 163.998C312.027 170.551 311.042 177.301 310.411 183.842L306.644 223.059L304.383 247.182C303.937 251.922 303.82 256.981 302.606 261.583C301.333 266.414 299.604 271.199 298.122 275.975L289.397 304.078C287.535 309.963 285.714 315.862 283.934 321.773C282.978 324.907 282.138 328.158 280.992 331.225C280.581 332.323 280.215 333.315 279.154 333.924C278.737 333.864 278.655 333.921 278.331 333.597C277.411 332.678 277.473 331.663 277.421 330.44L271.733 250.957L270.41 232.672C270.108 228.277 269.562 223.737 270.124 219.349C270.605 215.501 271.759 211.768 273.534 208.321C275.473 204.641 278.059 201.277 280.461 197.889L290.3 183.955C293.188 179.849 304.622 162.397 307.746 160.002Z" id="svg_9" class="" fill-opacity="1"/><path fill="#c4d850" d="M113.183,225.496C113.977,225.475 114.913,225.365 115.614,225.806C116.632,226.446 116.684,227.673 116.713,228.753C116.877,234.75 115.839,240.885 115.632,246.902C115.047,261.473 115.007,276.062 115.513,290.636C116.137,310.359 118.607,330.744 124.153,349.708C126.789,358.724 130.289,367.673 133.613,376.46C135.399,381.226 137.316,385.942 139.364,390.601C141.392,395.276 143.658,399.888 144.899,404.852C145.705,408.131 146.182,411.481 146.325,414.853C146.485,419.169 145.61,433.555 143.389,437.019C141.993,439.195 139.841,440.038 137.421,440.536C134.899,440.484 133.106,439.775 131.305,437.966C127.575,434.219 123.522,425.898 121.204,421.006C104.008,384.722 101.892,343.736 102.55,304.223C102.929,281.47 104.722,258.33 109.59,236.071C110.296,232.839 110.769,227.829 113.183,225.496z" id="svg_10" class="" fill-opacity="1"/><path fill="#c4d850" d="M400.352 227.006C401.207 226.978 402.015 226.929 402.707 227.529C404.576 229.153 406.224 242.1 406.646 245.086C409.334 264.125 409.881 283.277 409.66 302.48C409.217 340.995 405.756 381.429 388.965 416.654C385.719 423.464 381.946 430.396 377.36 436.407C375.353 439.038 373.424 440.494 370.123 440.946C369.625 440.9 369.133 440.848 368.641 440.751C366.503 440.328 364.633 439.179 363.461 437.318C360.426 432.498 361.215 412.896 362.527 407.492C363.738 402.505 365.817 398.042 368.082 393.475C372.472 384.549 376.506 375.453 380.174 366.208C383.3 358.51 386.33 350.899 388.634 342.903C395.632 318.619 397.968 292.612 398.648 267.409C398.851 259.874 398.967 252.382 398.863 244.843C398.807 240.77 397.925 232.495 398.732 228.948C398.97 227.904 399.474 227.548 400.352 227.006Z" id="svg_11" class="" fill-opacity="1"/><path fill="#b6b6b6" d="M351.78 19.5779C354.61 19.6355 357.226 20.2964 359.414 22.1959C362.036 24.4718 363.096 27.6212 363.367 30.986C365.454 56.8347 361.055 62.576 344.711 81.51L322.943 106.842C321.84 108.121 320.566 109.484 318.821 109.803C317.578 110.03 316.348 109.466 315.353 108.753C314.249 107.962 313.778 106.88 313.602 105.566C313.087 101.699 313.716 96.4067 314.01 92.4861C315.656 70.5484 322.438 50.3076 336.033 32.7888C339.035 28.9216 343.512 22.9084 347.816 20.6567C349.114 19.9773 350.352 19.7574 351.78 19.5779Z" id="svg_12" class="" fill-opacity="1"/><path fill="#b6b6b6" d="M157.054 19.5849C159.635 19.4111 162.148 20.6069 164.119 22.1811C167.075 24.5431 169.569 27.839 171.953 30.7665C185.014 46.8126 193.112 66.3191 195.256 86.8973C195.615 90.2225 195.662 93.5558 195.849 96.8915C196.002 99.6013 196.517 102.725 196.109 105.407C195.955 106.427 195.59 107.38 194.911 108.166C194.084 109.123 192.668 109.892 191.387 109.9C189.733 109.912 188.64 108.84 187.55 107.739C180.538 99.837 173.752 91.7162 166.883 83.6896C161.668 77.5958 155.567 71.4424 151.573 64.4847C148.726 59.492 146.866 53.9981 146.094 48.3025C145.287 42.6585 145.332 28.0957 148.862 23.6151C150.932 20.9862 153.863 20.0004 157.054 19.5849Z" id="svg_13" class="" fill-opacity="1"/><path fill="#919191" d="M146.775 69.9486C147.19 69.9472 147.714 69.9116 148.108 70.0713C148.958 70.4149 149.706 71.4434 150.257 72.1477C151.957 74.321 153.306 76.8227 154.879 79.0955C157.617 83.0491 161.005 87.064 163.134 91.3856C164.48 94.1185 164.978 97.7281 164.175 100.714C163.092 104.74 160.762 108.878 159.038 112.685C155.897 119.562 152.815 126.465 149.79 133.393C143.748 147.119 137.891 160.926 132.219 174.809C127.899 185.413 123.58 196.083 119.935 206.941C119.026 209.689 117.935 215.516 115.354 216.929C114.671 216.924 114.322 216.876 113.784 216.417C112.735 215.523 112.162 213.723 112.16 212.388C112.119 192.35 118.438 176.757 125.449 158.381L137.426 126.885C140.1 119.834 143.692 112.558 145.057 105.135C146.242 98.6963 145.624 86.6097 145.569 79.7141C145.548 77.0999 145.208 73.9203 145.819 71.3896C145.962 70.7956 146.359 70.373 146.775 69.9486Z" id="svg_14" class="" fill-opacity="1"/><path fill="#919191" d="M359.374 76.4094C360.578 74.5739 362.662 70.5616 364.884 70.0482C365.355 69.9395 365.435 70.0335 365.866 70.1852C367.446 72.1696 366.782 79.6941 366.757 82.5441L366.732 87.1031C366.735 93.4817 366.324 100.188 367.691 106.448C369.021 112.543 371.822 118.441 374.021 124.275L385.864 155.378C391.931 171.346 398.327 186.584 399.969 203.753C400.3 207.217 400.63 211.268 399.996 214.706C399.872 215.382 399.447 216.042 398.817 216.349C398.126 216.686 397.017 216.73 396.346 216.349C395.791 216.033 395.459 215.429 395.215 214.86C394.226 212.552 393.553 210.008 392.751 207.624C391.558 204.128 390.306 200.652 388.996 197.198C381.578 177.701 373.669 158.394 365.276 139.295L354.408 114.822C352.407 110.369 348.892 104.223 348.059 99.4578C346.778 92.1366 354.358 83.6232 358.381 77.814L359.374 76.4094Z" id="svg_15" class="" fill-opacity="1"/><path fill="#919191" d="M359.374 76.4094C360.578 74.5739 362.662 70.5616 364.884 70.0482C365.355 69.9395 365.435 70.0335 365.866 70.1852C367.446 72.1696 366.782 79.6941 366.757 82.5441C366.505 82.5357 366.077 82.4819 365.852 82.3813C364.909 81.9587 361.091 77.541 359.374 76.4094Z" id="svg_16" class="" fill-opacity="1"/><path fill="#919191" d="M358.381 77.814L359.374 76.4094C361.091 77.541 364.909 81.9587 365.852 82.3813C366.077 82.4819 366.505 82.5357 366.757 82.5441L366.732 87.1031C366.657 86.7551 366.58 85.9104 366.409 85.6432C365.76 84.6323 359.979 79.5951 358.381 77.814Z" id="svg_17" class="" fill-opacity="1"/></g></svg>