<svg xmlns="http://www.w3.org/2000/svg" xmlns:xlink="http://www.w3.org/1999/xlink" width="512" height="512"><rect id="backgroundrect" width="100%" height="100%" x="0" y="0" fill="none" stroke="none"/>
	
	
	
	
	
	
	
	
	
	
	
	
	
	
	
	
	
	
	
	
	
	
	
	
	
	
	
<g class="currentLayer" style=""><title>Layer 1</title><path fill="#6d6d6d" d="M52.68639773807526,149.72 C50.93169773807526,143.416 49.95909773807526,136.769 49.21229773807526,130.274 C46.496697738075255,106.66 47.76279773807526,76.9112 58.90029773807526,55.5223 C68.36369773807526,37.3484 84.50679773807525,24.3372 102.13079773807526,14.5462 C108.57679773807526,10.9656 115.71479773807526,7.48588 122.78879773807526,5.30748 C124.47179773807525,4.789 125.95879773807526,4.52143 127.73579773807526,4.64465 C130.99279773807527,4.87037 134.36879773807524,5.61743 137.59879773807526,6.1418800000000005 L156.14979773807525,9.19886 L182.69979773807526,13.4545 C197.93879773807527,16.0244 213.14779773807527,18.712600000000002 228.55679773807526,20.0663 C246.89979773807525,21.6554 265.34579773807525,21.6744 283.6927977380752,20.1229 C298.82479773807523,18.8294 313.76379773807525,16.2973 328.72479773807527,13.7638 C333.04479773807526,13.0323 337.39179773807524,12.4707 341.7097977380753,11.7242 L372.7387977380753,6.62394 C376.76379773807525,5.97401 383.20179773807524,4.38014 387.10079773807524,4.61728 C393.19379773807526,4.98783 407.7917977380753,12.8179 413.64079773807526,15.9369 L415.09179773807523,16.7774 C417.6327977380753,18.5095 420.28079773807525,20.0793 422.81679773807525,21.8168 C425.04679773807527,23.3439 427.18779773807523,25.0463 429.45779773807527,26.5044 L429.8877977380753,26.7815 C432.22779773807525,28.8888 434.6567977380753,30.9203 436.9287977380753,33.1005 C438.48579773807523,34.5951 442.15579773807525,38.9579 443.58279773807527,39.7854 L444.86279773807524,41.4172 C448.54279773807525,46.1762 451.7027977380753,50.9742 454.6327977380753,56.2289 L455.8827977380753,58.7186 L456.78279773807526,61.1049 C457.48779773807524,62.9125 458.31479773807524,64.7404 458.88879773807525,66.59 C460.01679773807524,71.0534 461.13879773807525,75.5898 462.40079773807525,80.0142 L462.47579773807524,80.2872 C463.46579773807525,86.0325 464.2387977380753,91.8131 464.79279773807525,97.6168 C464.8567977380753,98.5241 464.8827977380753,99.4505 465.03279773807526,100.348 C465.33179773807524,109.081 465.14679773807524,117.824 464.4767977380753,126.537 C463.69979773807523,129.298 463.91379773807523,132.292 463.35379773807523,135.094 C462.5437977380753,139.975 461.7217977380753,144.871 460.61079773807523,149.694 C462.43779773807523,151.23 465.60779773807525,154.751 467.32079773807527,155.787 C468.06279773807523,156.625 468.78479773807527,157.506 469.57179773807525,158.302 L470.90379773807524,159.748 C473.1187977380753,162.378 475.2197977380753,165.044 477.1807977380753,167.869 C478.5367977380753,169.821 479.82479773807523,172.073 481.35479773807526,173.87 C483.26379773807525,177.666 485.3947977380753,181.342 487.17079773807524,185.205 C492.95179773807524,197.774 496.1857977380753,211.109 497.65079773807525,224.831 C498.06279773807523,228.687 498.91979773807526,233.945 497.6807977380753,237.676 C497.06179773807526,239.543 495.92079773807524,241.489 494.91579773807524,243.186 L493.7507977380753,245.375 C487.65279773807526,256.285 481.63579773807527,267.239 475.70079773807527,278.238 L460.97479773807527,305.133 L450.4717977380753,324.383 C448.50279773807523,328.006 446.64779773807527,332.134 444.24979773807524,335.487 C443.10379773807523,337.09 441.60279773807525,338.344 439.67179773807527,338.851 C437.5437977380753,339.41 435.36079773807523,339.161 433.49079773807523,337.973 C427.44579773807527,334.133 418.83179773807524,310.487 416.63179773807525,303.159 C415.36479773807525,298.936 414.38879773807525,294.575 413.53579773807525,290.251 C411.64379773807525,280.88 410.89779773807527,271.313 411.31479773807524,261.762 C406.7867977380753,254.808 400.76579773807526,248.831 396.1977977380753,241.942 C390.4167977380753,252.109 381.97079773807525,259.278 378.60379773807523,270.921 C375.38979773807523,282.037 377.7507977380753,293.035 379.6017977380753,304.111 L382.49179773807526,321.803 C383.70379773807525,329.141 385.49879773807527,337.268 386.0727977380753,344.624 C386.50479773807524,350.16 386.18279773807524,355.825 386.09179773807523,361.373 C385.95779773807527,370.71 385.77079773807526,380.045 385.53079773807525,389.379 C385.33679773807523,395.135 385.2337977380753,400.893 385.2217977380753,406.652 C385.18779773807523,411.539 385.60079773807524,425.1 384.4047977380753,428.946 C383.16979773807526,432.913 379.2147977380753,436.868 376.53379773807524,440.011 C362.23279773807525,456.777 345.7097977380753,471.689 326.8057977380753,483.13 C321.6307977380753,486.312 316.27679773807523,489.194 310.7697977380753,491.759 C307.48979773807525,493.266 303.83079773807526,494.446 300.70479773807523,496.202 L299.76179773807524,496.485 C294.98079773807524,498.575 289.52779773807526,499.88 284.45179773807524,501.091 C262.77279773807527,506.267 241.74379773807524,505.672 220.22279773807526,499.892 C216.02879773807527,498.765 211.91279773807526,497.151 207.88479773807526,495.546 C181.17579773807526,484.909 158.14379773807525,466.2 139.72879773807526,444.355 C136.47379773807526,440.493 130.36779773807527,433.742 128.73279773807525,429.068 C128.31479773807524,427.872 128.28379773807524,426.382 128.22279773807526,425.121 C127.87279773807526,417.922 128.01479773807526,410.664 127.91879773807526,403.455 L127.30379773807526,374.021 L126.97279773807526,356.16 C126.88579773807525,351.938 126.57679773807526,347.336 127.13579773807525,343.15 C128.60379773807526,332.163 130.68379773807527,321.153 132.52479773807525,310.213 C134.49179773807526,298.526 137.56379773807527,286.316 135.38279773807525,274.478 C132.82479773807526,260.589 123.50579773807526,253.343 116.86779773807525,241.908 C112.55479773807525,248.775 106.38379773807526,254.533 102.09279773807526,261.405 C101.87279773807526,264.694 102.08579773807526,268.019 101.90379773807526,271.316 C101.33379773807526,282.642 99.36119773807526,293.854 96.03149773807526,304.695 C93.91029773807526,311.513 85.22129773807525,335.31 79.14109773807526,338.301 C77.12699773807526,339.292 74.62049773807526,339.4 72.52929773807526,338.58 C70.77569773807525,337.892 69.45299773807525,336.325 68.45329773807525,334.782 C65.02729773807526,329.491 62.225097738075256,323.534 59.18809773807526,317.999 L39.90609773807525,282.666 L22.261397738075257,250.361 C20.220297738075256,246.57 17.829897738075257,242.958 16.024697738075254,239.044 L15.742997738075257,238.696 C15.572197738075257,238.221 15.409797738075257,237.743 15.289697738075256,237.252 C14.309197738075257,233.248 15.080297738075256,228.149 15.538297738075256,224.064 C17.696997738075257,204.814 23.220797738075255,188.392 33.183797738075256,171.792 C33.77059773807525,171.049 34.25669773807525,170.336 34.69139773807526,169.494 C39.918097738075254,162.054 45.80439773807526,155.664 52.68639773807526,149.72 z" id="svg_1" class="" fill-opacity="1"/><path fill="#919191" d="M321.679 33.8537C330.356 32.3925 342.914 38.6547 350.1 43.265C362.251 51.0607 376.85 64.1408 382.745 77.4844C383.928 80.1628 384.621 83.0617 385.579 85.8266C386.941 89.7596 388.753 93.7686 390.808 97.3943C392.916 101.114 401.379 113.035 401.845 115.533C402.091 116.853 401.708 117.749 400.925 118.805C400.407 119.503 399.874 119.886 399.066 120.188C397.076 120.932 394.836 121.123 392.766 121.594C388.908 122.473 385.01 124.158 381.542 126.035C376.42 128.865 371.802 132.526 367.878 136.867C365.938 139.031 364.234 141.409 362.259 143.539C356.992 149.22 350.402 151.877 342.861 152.989C341.291 153.1 340.031 153.008 338.51 152.581C332.887 151.003 327.316 148.876 321.783 146.998L293.316 137.441C290.383 136.459 287.451 135.499 284.457 134.718C281.283 133.89 277.995 133.232 274.897 132.149C272.993 131.482 270.769 130.553 269.177 129.299C265.853 126.681 262.889 122.097 262.324 117.862C261.836 114.197 262.018 110.389 262.013 106.699L262.007 89.8126L262.008 75.5754C262.003 72.2886 261.795 68.7199 262.349 65.473C262.787 62.9125 263.744 60.5412 265.379 58.5063C268.302 54.8686 273.143 52.7139 277.166 50.5145C290.714 43.1066 306.096 35.362 321.679 33.8537Z" id="svg_2" class="" fill-opacity="1"/><path fill="#919191" d="M186.129 33.8504C196.982 32.8636 211.585 39.0727 221.437 43.6417C227.32 46.3699 240.84 52.8792 245.304 57.1162C247.089 58.8099 248.297 60.7099 249.11 63.0309C249.535 64.2439 249.719 65.4411 249.811 66.7152C250.456 75.6233 249.993 84.8201 249.991 93.7584C249.988 101.409 250.512 109.488 249.76 117.083C249.563 119.073 249.001 120.915 248.113 122.707C246.326 126.302 243.446 129.239 239.886 131.095C235.425 133.435 227.816 134.472 222.638 136.134C206.236 141.398 189.956 147.115 173.621 152.587C173.356 152.669 173.091 152.754 172.821 152.821C170.423 153.418 167.551 152.91 165.187 152.34C153.675 149.567 151.088 144.483 143.75 136.485C140.429 132.841 136.615 129.679 132.418 127.091C128.972 124.988 125.26 123.357 121.381 122.242C118.473 121.428 114.763 121.203 112.206 119.603C111.067 118.89 110.167 117.759 110.035 116.379C109.957 115.561 110.345 114.619 110.696 113.9C111.749 111.747 113.332 109.735 114.679 107.753C116.712 104.773 118.646 101.727 120.479 98.6198C122.681 94.8292 124.684 90.7575 126.147 86.6238C127.287 83.4046 128.086 80.0545 129.498 76.9358C131.409 72.7162 134.202 68.8295 137.114 65.2428C148.323 51.4385 168.103 35.666 186.129 33.8504Z" id="svg_3" class="" fill-opacity="1"/><path fill="#dff250" d="M121.651 22.1022C135.519 20.1565 157.647 26.5296 170.076 32.626C166.297 33.1665 162.699 33.9325 159.155 35.3789C140.234 43.1016 124.968 64.001 116.823 82.18C113.769 88.9966 112.426 96.4103 108.765 102.945C103.751 111.894 96.4104 119.617 89.2016 126.819C81.6544 134.158 73.6469 140.708 65.5778 147.435C64.352 140.95 63.433 134.311 62.7186 127.752C59.7943 100.902 59.5326 68.4518 77.4862 46.2999C85.6895 36.1782 100.158 27.1918 112.777 23.6416C115.703 22.8183 118.639 22.4198 121.651 22.1022Z" id="svg_4" class="" fill-opacity="1"/><path fill="#dff250" d="M380.458 22.1037C385.276 21.4092 390.977 21.9149 395.74 22.8095C406.696 24.8672 420.064 32.3932 428.322 39.7805C431.955 43.0431 435.162 46.7512 437.867 50.8168C455.085 76.4052 451.984 118.603 446.429 147.371C440.302 142.309 434.22 137.299 428.28 132.012C418.809 123.521 407.781 112.217 402.082 100.69C399.828 96.133 398.79 91.2434 397.012 86.5155C393.238 76.48 387.479 66.8029 380.865 58.3873C371.006 45.8435 358.223 34.5926 341.814 32.63C354.097 26.9333 366.957 23.2621 380.458 22.1037Z" id="svg_5" class="selected" fill-opacity="1"/><path fill="#919191" d="M411.485 130.541C412.026 130.479 412.556 130.41 413.087 130.569C414.558 131.01 422.141 137.32 424.132 138.84C430.218 143.485 436.977 147.284 443.001 151.962C443.837 152.612 444.6 153.304 445.085 154.262C446.561 157.179 447.639 160.394 448.83 163.44L454.469 177.684L461.469 195.332C463.166 199.614 464.98 203.876 466.266 208.304C467.184 211.466 467.615 214.473 467.865 217.746C468.558 226.82 466.632 236.511 465.603 245.54C465.037 250.509 464.551 259.736 463.091 264.175C462.288 266.617 460.426 267.989 458.218 269.083C458.129 269.112 458.041 269.144 457.951 269.169C455.626 269.815 453.517 269.655 451.391 268.488C448.727 267.027 446.411 264.577 444.223 262.494C426.615 245.726 415.681 219.246 408.64 196.397C406.198 188.471 403.649 180.121 402.302 171.943C401.414 166.552 401.998 160.415 402.005 154.949C402.011 150.365 401.614 145.497 402.126 140.949C402.317 139.249 402.751 137.553 403.588 136.05C405.336 132.909 408.138 131.44 411.485 130.541Z" id="svg_6" class="" fill-opacity="1"/><path fill="#919191" d="M98.7475 130.47C101.619 130.506 104.435 131.504 106.494 133.551C108.08 135.128 109.105 137.19 109.607 139.356C110.398 142.774 110.019 146.607 110.022 150.099L110.037 165.218C110.001 173.738 107.556 181.949 105.237 190.095C98.1138 215.123 87.0919 243.436 68.2408 262.097C64.3861 265.912 61.14 269.578 55.3456 269.546C53.3318 268.962 51.6596 268.196 50.3032 266.537C49.5965 265.673 49.0072 264.676 48.7121 263.594C47.3995 258.781 47.2433 252.82 46.682 247.831C45.5425 237.704 43.3859 226.933 44.2407 216.753C44.5444 213.136 45.2151 209.886 46.3226 206.429C47.4935 202.775 49.0202 199.21 50.4298 195.642L57.288 178.373C60.2832 170.87 63.3841 161.828 66.6813 154.628C66.9713 153.994 67.2652 153.49 67.8143 153.045C67.9186 152.961 68.0279 152.883 68.1319 152.798C72.923 148.893 78.3828 145.632 83.4427 142.066C88.6868 138.37 93.6412 134.343 98.7475 130.47Z" id="svg_7" class="" fill-opacity="1"/><path fill="#b6b6b6" d="M265.97 333.556C270.533 333.25 275.253 333.448 279.834 333.429C283.722 333.414 287.913 333.099 291.765 333.561C293.363 333.744 294.918 334.195 296.366 334.895C299.025 336.2 300.997 338.681 301.907 341.481C303.292 345.742 302.488 354.463 302.515 359.256C302.731 396.837 296.792 425.719 279.743 459.392C277.377 464.087 275.134 468.921 272.548 473.495C271.184 475.907 269.984 477.311 267.264 478.065C266.625 477.924 265.98 477.767 265.368 477.534C264.114 477.056 263.002 476.119 262.495 474.858C261.993 473.613 262.01 472.063 261.98 470.733C261.839 464.328 262.037 457.883 262.025 451.473L262.028 399.967L262.022 361.244C262.009 354.128 261.779 346.942 262.013 339.833C262.05 338.69 262.106 337.424 262.574 336.366C263.244 334.847 264.507 334.174 265.97 333.556Z" id="svg_8" class="" fill-opacity="1"/><path fill="#b6b6b6" d="M219.958 333.574C224.887 333.29 229.899 333.431 234.838 333.421C238.063 333.414 241.569 333.137 244.767 333.55C245.994 333.708 247.467 334.041 248.47 334.814C249.286 335.444 249.705 336.598 249.843 337.587C250.415 341.66 249.966 349.211 249.959 353.632L249.944 388.077L249.95 445.793C249.946 454.473 250.36 463.336 249.963 471.998C249.893 473.52 249.643 474.954 248.63 476.151C247.756 477.199 246.488 477.841 245.126 477.925C243.582 478.018 242.604 477.471 241.453 476.513C238.533 472.718 236.417 467.608 234.236 463.313C223.288 441.754 215.834 422.309 211.968 398.279C209.735 384.394 209.537 370.741 209.466 356.732C209.445 352.544 209.004 347.819 209.613 343.698C209.921 341.616 210.669 339.681 211.94 337.995C213.935 335.349 216.752 334.045 219.958 333.574Z" id="svg_9" class="" fill-opacity="1"/><path fill="#b6b6b6" d="M266.868 142.257C270.385 142.238 282.854 147.1 287.122 148.537L324.965 161.218C327.215 161.951 329.616 162.121 331.867 162.831C332.764 163.113 333.613 163.516 334.359 164.092C336.13 165.46 337.041 167.618 337.307 169.792C338.396 178.692 330.877 191.708 325.665 198.634C323.2 201.853 320.679 204.592 316.896 206.203C307.89 201.959 298.43 197.718 288.767 195.222C284.097 194.015 279.373 192.997 274.665 191.949C271.619 191.271 268.231 190.762 265.37 189.511C263.955 188.892 262.714 187.851 262.196 186.352C261.882 185.444 261.812 184.383 261.77 183.426C261.471 176.582 261.761 169.595 261.765 162.738C261.767 158.15 261.392 153.27 261.744 148.714C261.828 147.634 262.041 146.554 262.531 145.58C263.468 143.718 264.98 142.938 266.868 142.257Z" id="svg_10" class="" fill-opacity="1"/><path fill="#b6b6b6" d="M243.236 142.282C244.922 142.263 246.316 142.674 247.642 143.758C248.882 144.771 249.366 145.953 249.546 147.508C250.19 153.069 249.67 161.857 249.675 167.783L249.685 179.065C249.687 181.06 249.845 183.208 249.59 185.182C249.457 186.205 249.066 187.091 248.406 187.884C245.62 191.228 227.204 193.873 221.887 195.459C214.956 197.585 208.163 200.136 201.545 203.097C199.911 203.81 195.758 206.036 194.249 205.92C191.776 205.731 188.69 201.825 187.183 200.06C182.7 194.624 178.97 187.791 176.651 181.146C175.145 176.831 173.467 170.585 175.686 166.255C176.343 164.973 177.34 163.915 178.664 163.322C180.783 162.373 183.399 162.069 185.645 161.445C188.965 160.521 192.233 159.333 195.501 158.239C211.392 152.919 227.247 147.294 243.236 142.282Z" id="svg_11" class="" fill-opacity="1"/><path fill="#b6b6b6" d="M266.992 258.831C271.426 258.358 276.155 258.666 280.622 258.656C285.022 258.645 290.645 258.085 294.907 258.94C298.125 259.585 300.669 261.028 302.458 263.822C303.381 265.263 304.023 266.92 304.223 268.623C304.486 270.858 304.329 273.239 304.327 275.492L304.325 288.348L304.335 305.444C304.345 309.191 304.899 314.084 303.951 317.678C303.105 320.881 301.066 323.21 298.226 324.837C296.681 325.592 295.084 325.986 293.381 326.15C289.709 326.504 268.735 326.455 266.217 325.638C264.631 325.123 263.329 323.973 262.623 322.461C262.096 321.326 262.126 319.933 262.078 318.703C261.707 309.224 262.01 299.62 262.021 290.123C262.029 282.327 261.706 274.425 262.034 266.64C262.092 265.263 262.131 263.567 262.67 262.29C263.47 260.394 265.193 259.548 266.992 258.831Z" id="svg_12" class="" fill-opacity="1"/><path fill="#b6b6b6" d="M217.393 258.793C222.767 258.473 228.214 258.666 233.6 258.659C236.821 258.655 240.236 258.359 243.424 258.746C244.824 258.916 246.752 259.24 247.824 260.25C249.446 261.777 249.904 264.212 249.997 266.343C250.187 270.649 249.98 275.027 249.942 279.34C249.906 285.155 249.912 290.97 249.96 296.784L249.972 311.072C249.975 313.983 250.118 317.015 249.791 319.909C249.603 321.567 249.338 322.939 248.151 324.177C246.029 326.391 243.001 326.146 240.187 326.183C235.888 326.288 231.567 326.218 227.265 326.234C224.311 326.245 221.156 326.482 218.229 326.08C216.465 325.837 214.74 325.376 213.181 324.487C210.733 323.092 208.768 320.465 208.077 317.736C207.216 314.342 207.683 310.05 207.688 306.53L207.695 289.901C207.697 283.344 207.19 275.965 207.793 269.518C207.981 267.504 208.303 265.735 209.402 263.988C211.302 260.968 214.051 259.617 217.393 258.793Z" id="svg_13" class="" fill-opacity="1"/><path fill="#919191" d="M152.084 330.776C153.234 330.754 153.954 331.001 154.884 331.681C158.277 334.161 161.535 338.453 164.445 341.541C181.76 359.918 192.191 378.261 195.945 403.529C196.643 408.233 197.828 421.472 197.301 425.764C197.174 426.796 196.812 427.858 196.157 428.676C195.117 429.975 193.72 430.371 192.141 430.594C190.987 430.163 190.226 429.769 189.336 428.917C184.701 424.48 179.504 417.636 175.201 412.638C168.802 405.204 161.713 397.722 155.856 389.894C153.982 387.355 152.357 384.643 151.003 381.793C145.042 369.083 147.137 357.197 148.218 343.885C148.482 340.628 148.069 336.406 149.249 333.352C149.823 331.863 150.663 331.377 152.084 330.776Z" id="svg_14" class="" fill-opacity="1"/><path fill="#919191" d="M358.507 330.771C358.945 330.791 359.397 330.808 359.828 330.891C360.832 331.084 361.656 331.609 362.228 332.452C362.787 333.278 363.093 334.25 363.254 335.226C363.708 337.965 363.601 340.864 363.843 343.636C364.393 349.946 365.241 356.455 365.206 362.786C365.167 365.7 364.869 368.606 364.317 371.468C363.319 376.804 361.334 381.907 358.466 386.517C355.704 390.988 352.12 394.872 348.698 398.839L337.175 412.236C333.852 416.114 324.761 427.707 321.151 430.145C320.137 430.435 319.361 430.555 318.328 430.274C316.978 429.905 315.978 429.104 315.335 427.858C314.191 425.64 314.739 422.297 314.828 419.847C315.23 408.891 316.403 398.409 319.517 387.872C325.485 367.68 334.929 355.15 349.007 340.021C351.776 337.045 354.945 332.709 358.507 330.771Z" id="svg_15" class="" fill-opacity="1"/><path fill="#b6b6b6" d="M266.09 200.307C266.166 200.3 266.242 200.292 266.318 200.286C279.151 199.341 300.307 209.414 310.094 217.717C313.569 220.665 315.942 224.36 316.239 229.011C316.611 234.844 312.443 242.095 308.746 246.395C308.182 246.904 307.607 247.434 306.962 247.84C305.449 248.791 303.645 249.204 301.885 249.376C297.794 249.776 293.416 249.346 289.288 249.343L275.402 249.417C272.578 249.44 269.374 249.792 266.62 249.163C265.256 248.852 263.473 248.159 262.776 246.848C262.227 245.816 262.091 243.867 262.031 242.69C261.788 237.893 261.619 205.233 262.622 203.001C263.287 201.521 264.67 200.895 266.09 200.307Z" id="svg_16" class="" fill-opacity="1"/><path fill="#b6b6b6" d="M242.99 200.348C244.179 200.187 245.437 200.174 246.578 200.586C247.76 201.013 249.109 202.065 249.534 203.293C250.267 205.408 250.161 239.935 249.943 243.95C249.906 244.623 249.824 245.252 249.566 245.879C249.014 247.218 247.96 248.392 246.585 248.906C245.591 249.278 244.503 249.409 243.448 249.453C237.478 249.702 231.401 249.325 225.418 249.34C220.34 249.353 214.984 249.837 209.944 249.347C208.186 249.176 206.717 248.741 205.121 247.977C204.952 247.853 204.785 247.727 204.62 247.599C200.981 244.734 196.295 236.031 195.79 231.371C195.366 227.465 196.714 223.468 199.176 220.442C201.259 217.882 204.134 215.913 206.842 214.072C217.624 206.745 229.945 201.629 242.99 200.348Z" id="svg_17" class="" fill-opacity="1"/><path fill="#919191" d="M155.704 227.97C156.644 228.204 157.198 228.556 157.912 229.207C159.99 231.097 161.665 233.51 163.539 235.606C167.248 239.755 171.18 243.837 174.612 248.215C183.943 260.12 183.958 270.314 183.909 284.633C183.897 288.285 184.295 292.188 183.84 295.802C183.66 297.222 183.473 297.886 182.331 298.784C180.008 298.212 166.894 286.466 164.437 283.975C162.871 282.378 161.452 280.643 160.197 278.791C152.49 267.428 154.05 254.284 154.058 241.3C154.061 237.736 153.384 233.418 154.147 229.941C154.372 228.916 154.849 228.514 155.704 227.97Z" id="svg_18" class="" fill-opacity="1"/><path fill="#919191" d="M355.738 227.96C356.532 228.216 357.002 228.39 357.579 229.004C358.543 231.462 358.093 257.255 357.801 261.31C357.63 263.698 357.298 265.919 356.657 268.225C353.582 279.285 346.737 284.916 338.445 292.096C335.914 294.287 333.292 296.987 330.388 298.644C329.546 298.487 329.068 298.338 328.604 297.589C327.625 296.008 328.135 274.612 328.35 271.277C328.492 269.067 328.769 266.893 329.278 264.736C330.241 260.697 331.805 256.825 333.916 253.25C335.014 251.445 336.215 249.706 337.513 248.039C339.633 245.363 342.064 242.891 344.318 240.324C347.107 237.147 352.437 230.014 355.738 227.96Z" id="svg_19" class="" fill-opacity="1"/><path fill="#919191" d="M156.999 290.276C157.515 290.286 158.047 290.282 158.549 290.418C160.583 290.968 174.736 304.571 176.858 306.828C178.074 308.121 179.185 309.481 180.134 310.983C181.627 313.363 182.689 315.986 183.27 318.734C184.106 322.695 184.409 338.535 183.524 342.421C182.702 343.248 182.003 343.846 180.95 344.363C180.477 344.374 179.99 344.366 179.531 344.235C177.329 343.608 162.805 327.661 160.598 324.935C159.054 323.028 157.701 321.048 156.59 318.857C153.566 312.893 154.093 306.272 154.021 299.804C153.997 297.642 153.596 294.815 154.322 292.758C154.827 291.328 155.691 290.885 156.999 290.276Z" id="svg_20" class="" fill-opacity="1"/><path fill="#919191" d="M352.3474045238495,290.288 C352.6524045238495,290.28 352.94940452384947,290.27 353.2534045238495,290.301 C354.3334045238495,290.411 355.38240452384946,290.795 356.04340452384946,291.698 C357.7434045238495,294.019 356.90840452384947,309.74 356.1974045238495,313.206 C355.5654045238495,316.274 354.3624045238495,319.197 352.6504045238495,321.82 C350.4294045238495,325.232 334.8144045238495,342.224 331.6024045238495,344.318 C330.9214045238495,344.348 330.3444045238495,344.312 329.6854045238495,344.116 C328.6744045238495,343.816 327.8344045238495,343.147 327.3914045238495,342.176 C326.43740452384947,340.08 326.9954045238495,324.224 327.2664045238495,321.124 C327.39640452384947,319.629 327.6384045238495,318.198 328.1164045238495,316.772 C328.9604045238495,314.253 329.9994045238495,311.91 331.5874045238495,309.775 C333.9864045238495,306.547 349.2384045238495,291.832 352.3474045238495,290.288 z" id="svg_21" class="" fill-opacity="1"/><path fill="#919191" d="M461.877 174.933C462.372 174.984 462.795 175.05 463.236 175.291C465.174 176.349 466.928 178.233 468.406 179.837C475.241 187.255 479.711 196.197 482.583 205.807C485.37 215.135 488.348 230.993 485.854 240.346C484.699 244.677 482.399 248.61 480.276 252.522C479.44 254.242 478.448 256.836 476.57 257.639C475.966 257.898 475.652 257.82 475.06 257.602C474.421 256.915 474.194 256.215 474.064 255.299C473.782 253.306 474.132 251.037 474.193 249.018C474.272 245.547 474.324 242.076 474.348 238.604C474.421 228.979 474.637 218.199 472.882 208.757C471.918 203.573 470.26 198.586 468.309 193.701C467.212 190.953 460.612 177.567 460.531 176.639C460.757 175.814 461.255 175.463 461.877 174.933Z" id="svg_22" class="" fill-opacity="1"/><path fill="#919191" d="M49.1956 174.904C49.5325 174.988 49.9369 175.064 50.2564 175.214C50.9106 175.522 51.0815 175.889 51.3592 176.522C51.3132 179.25 48.6251 182.649 47.4326 185.136C44.2863 191.7 41.5103 198.567 39.7981 205.656C36.9857 217.3 37.5656 232.925 37.7453 245.031C37.7955 248.41 38.1985 251.998 37.9715 255.356C37.9128 256.225 37.7353 256.785 37.2279 257.487C36.6031 257.777 36.4259 257.892 35.7223 257.699C33.8943 257.197 33.237 255.414 32.4771 253.887C24.9872 240.057 24.0567 236.063 26.2857 220.448C28.7013 203.525 35.0832 185.515 49.1956 174.904Z" id="svg_23" class="" fill-opacity="1"/><path fill="#919191" d="M400.389 194.86C400.867 194.917 401.284 195.024 401.744 195.168C403.539 197.214 406.336 207.347 407.604 210.635C410.583 218.362 413.985 225.985 417.436 233.512C418.512 235.858 422.088 242.518 422.466 244.335C422.658 245.259 422.348 245.73 421.851 246.453C421.726 246.403 421.599 246.356 421.476 246.302C419.973 245.634 418.376 243.845 417.271 242.638C410.903 235.683 406.253 227.188 402.712 218.495C401.787 216.223 401.014 213.9 400.515 211.496C399.71 207.619 398.86 198.478 400.389 194.86Z" id="svg_24" class="" fill-opacity="1"/><path fill="#919191" d="M102.047 216.428L102.788 214.758C103.022 215.277 103.22 215.421 103.686 215.695C105.26 216.623 106.818 218.365 108.101 219.668C108.341 219.911 108.273 219.833 108.65 220.054L107.925 221.778C104.569 229.112 100.648 235.869 95.307 241.967C94.1842 243.249 92.8489 244.872 91.3575 245.738C90.788 246.069 90.48 246.14 89.8487 245.995C89.7096 245.807 89.618 245.708 89.5367 245.472C89.3048 244.798 89.6616 244.032 89.9093 243.413C91.2089 240.162 92.9611 237.007 94.4378 233.824C97.083 228.074 99.6198 222.274 102.047 216.428Z" id="svg_25" class="" fill-opacity="1"/><path fill="#919191" d="M102.047 216.428L102.788 214.758C103.022 215.277 103.22 215.421 103.686 215.695C105.26 216.623 106.818 218.365 108.101 219.668C108.341 219.911 108.273 219.833 108.65 220.054L107.925 221.778C107.774 221.656 107.552 221.472 107.398 221.375C105.367 220.093 103.633 218.232 102.047 216.428Z" id="svg_26" class="" fill-opacity="1"/><path fill="#919191" d="M102.788 214.758C104.244 210.973 105.65 207.169 107.004 203.346C107.724 201.303 108.274 199.042 109.225 197.099C109.57 196.393 110.037 195.537 110.746 195.142C111.085 194.953 111.188 195.104 111.515 195.231C113.242 198.146 111.994 209.84 111.12 213.228C110.511 215.588 109.618 217.822 108.65 220.054C108.273 219.833 108.341 219.911 108.101 219.668C106.818 218.365 105.26 216.623 103.686 215.695C103.22 215.421 103.022 215.277 102.788 214.758Z" id="svg_27" class="" fill-opacity="1"/></g></svg>