<svg xmlns="http://www.w3.org/2000/svg" xmlns:xlink="http://www.w3.org/1999/xlink" width="512" height="512"><rect id="backgroundrect" width="100%" height="100%" x="0" y="0" fill="none" stroke="none"/>
	
	
	
	
	
	
	
	
	
	
	
	
	
	
	
	
	
	
	
	
	
	
	
	
	
	
	
<g class="currentLayer" style=""><title>Layer 1</title><path fill="#6d6d6d" d="M202.992 67.9768L202.944 67.5325C202.56 63.6843 202.272 47.5586 202.987 44.1596C203.304 42.6011 204.014 41.1491 205.048 39.9405C206.736 37.998 209.355 37.1242 211.896 37.4705C214.9 37.8802 218.323 40.0038 221.083 41.2946C229.546 45.2541 237.815 49.5001 247.163 50.9258C264.919 53.6337 276.081 47.8255 291.563 40.9291C294.74 39.5141 298.237 37.5839 301.77 37.4514C303.608 37.3824 305.576 38.1883 306.883 39.4922C308.083 40.6889 308.874 42.2713 309.241 43.9161C310.233 48.3591 309.567 62.8037 309.52 67.9277C311.333 69.0188 313.39 69.8841 315.293 70.8201C320.262 73.2642 325.297 75.562 330.254 78.0305C347.513 86.6797 364.858 95.1567 382.286 103.46C388.545 106.392 395.04 108.737 401.286 111.644C419.785 120.256 437.865 132.526 449.372 149.724C465.213 173.399 466.778 207.238 463.249 234.72C462.518 240.41 461.285 246.05 460.181 251.677C472.964 262.775 483.032 276.466 489.152 292.33C490.538 295.62 491.692 299.003 492.607 302.453C495.187 310.214 496.573 319.255 497.435 327.386C497.667 329.573 497.461 331.794 497.72 333.973C498.07 336.915 498.989 339.887 499.537 342.81C500.633 348.649 501.323 354.836 501.423 360.786C501.777 381.942 494.625 402.816 479.683 418.031C470.373 427.512 458.466 434.049 446.033 438.48C443.2 439.489 440.055 440.797 437.011 440.754C434.16 440.714 432.284 439.467 430.368 437.48C412.71 419.155 410.402 387.799 410.978 363.643C409.629 361.166 407.529 358.844 405.801 356.614L395.812 343.806C390.842 352.348 383.448 359.212 379.681 368.44C377.722 373.354 376.645 378.576 376.499 383.865C376.349 391.612 378.155 399.415 379.396 407.032L383.942 435.248C384.66 439.508 386.444 445.082 385.559 449.387C385.184 451.21 384.032 453.069 382.442 454.064C381.438 454.692 380.309 455.15 379.174 455.477C375.551 456.52 371.655 457.081 367.955 457.845L341.785 463.089L312.176 469.087C300.164 471.507 288.291 473.847 276.062 474.996C257.313 476.62 238.437 475.993 219.836 473.129C207.816 471.226 195.87 468.39 183.948 465.936L135.408 455.982C131.451 455.143 127.789 453.754 126.666 449.41C125.666 445.539 127.581 439.829 128.223 435.953L132.822 407.583C133.972 400.633 135.502 393.507 135.796 386.463C135.91 382.956 135.612 379.448 134.909 376.01C132.694 365.168 127.696 359.564 121.375 351.116C119.602 348.745 118.008 346.236 116.396 343.753C113.12 348.868 102.824 360.015 101.154 364.343C99.8524 367.717 99.7316 374.627 99.084 378.53C97.3875 388.755 89.7147 428.904 82.9116 434.267C81.0461 435.738 78.6975 436.087 76.3998 435.731C71.693 435 66.6267 432.761 62.2491 430.919C46.1761 424.157 31.0948 415.266 20.518 401.032C9.09543 385.659 5.87347 366.859 9.968 348.297C11.0108 343.57 13.1765 339.172 14.1624 334.609C14.5329 332.894 14.5336 331.065 14.7216 329.318C15.1337 325.597 15.6052 321.884 16.1358 318.179C19.1144 297.824 27.6445 278.683 40.7894 262.858C44.2647 258.757 47.9505 254.89 52.2919 251.685C51.1613 248.36 50.7252 244.52 50.0833 241.052C45.5827 216.742 46.3426 187.875 55.2335 164.621C63.9098 141.928 83.6313 125.478 104.774 114.687C110.805 111.609 116.975 109.344 123.164 106.656C129.422 103.938 135.536 100.776 141.666 97.7781L187.015 75.645C192.334 73.0971 197.61 70.3828 202.992 67.9768Z" id="svg_1" class="" fill-opacity="1"/><path fill="#919191" d="M185.907 135.594C199.644 134.533 218.467 143.478 230.479 149.791C235.336 152.343 243.54 156.119 246.957 160.408C248.104 161.849 248.959 163.883 249.487 165.646C249.885 166.971 250.036 168.287 250.118 169.66C250.619 178.11 250.201 186.793 250.208 195.268C250.215 202.752 250.74 210.776 249.964 218.186C249.698 220.727 249.087 223.03 247.864 225.281C246.086 228.544 243.352 231.185 240.03 232.849C236.984 234.349 233.413 234.978 230.141 235.823C226.841 236.664 223.571 237.616 220.336 238.677C209.779 242.089 199.295 245.765 188.775 249.292C184.096 250.861 179.432 252.556 174.69 253.927C173.943 254.209 173.144 254.502 172.355 254.629C164.707 255.852 155.644 250.969 150.436 245.736C147.574 242.86 145.242 239.492 142.385 236.594C139.4 233.564 136.043 230.923 132.395 228.736C129.299 226.922 126.022 225.436 122.618 224.301C120.048 223.449 113.962 222.767 112.143 221.415C111.242 220.746 110.33 219.454 110.234 218.316C109.972 215.243 115.185 209.013 116.942 206.334C120.277 201.354 123.137 196.072 125.484 190.556C126.777 187.441 127.604 184.16 128.737 180.987C130.502 176.045 133.475 171.608 136.751 167.547C147.878 153.753 167.811 137.522 185.907 135.594Z" id="svg_2" class="" fill-opacity="1"/><path fill="#919191" d="M322.249 135.606C328.836 135.039 335.756 137.331 341.617 140.165C356.391 147.311 374.888 162.712 382.148 177.583C383.79 180.946 384.66 184.563 385.867 188.086C387.033 191.485 388.7 194.836 390.393 198.006C392.064 201.122 393.889 204.153 395.861 207.087C398.057 210.34 401.051 213.738 402.349 217.436C401.853 219.452 401.366 220.631 399.482 221.676C396.925 223.096 393.116 223.286 390.264 224.12C379.931 227.144 372.006 233.882 365.239 241.977C359.056 249.373 352.323 253.816 342.552 254.689C341.553 254.775 340.716 254.773 339.736 254.552C334.295 253.329 328.845 251.053 323.555 249.273C311.775 245.308 300.025 241.13 288.161 237.43C283.479 235.97 278.451 235.279 273.878 233.553C272.063 232.854 270.372 231.866 268.87 230.629C265.303 227.667 262.797 223.243 262.373 218.604C262.06 215.184 262.221 211.643 262.222 208.208L262.226 190.602L262.221 176.279C262.224 173.284 262.021 170.141 262.491 167.181C262.903 164.592 264.021 161.934 265.737 159.943C268.661 156.551 273.334 154.47 277.18 152.343C289.868 145.327 307.582 136.392 322.249 135.606Z" id="svg_3" class="" fill-opacity="1"/><path fill="#919191" d="M126.436 123.618C141.947 123.27 156.483 128.736 170.656 134.311C166.839 134.821 163.268 135.51 159.672 136.95C140.83 144.494 125.203 165.453 117.124 183.589C114.019 190.56 112.59 198.197 108.808 204.836C103.201 214.681 95.0268 222.943 87.0242 230.84C80.2593 237.41 72.8174 243.126 65.6122 249.18C65.3002 245.508 64.4745 241.783 63.9697 238.124C62.8097 229.713 61.8332 221.15 61.5417 212.665C60.7372 189.238 63.4144 162.932 80.2509 145.056C88.2299 136.584 102.17 128.135 113.53 125.21C117.791 124.113 122.056 123.743 126.436 123.618Z" id="svg_4" class="" fill-opacity="1"/><path fill="#919191" d="M383.685 123.61C387.671 123.389 391.888 123.804 395.804 124.536C401.24 125.551 406.169 127.679 411.076 130.16C421.751 135.556 430.957 142.132 437.785 152.149C455.243 177.761 452.12 220.045 446.599 249.08C439.896 243.402 433.023 238.084 426.617 232.048C417.518 223.566 407.964 213.732 402.301 202.523C400.027 198.022 398.935 193.084 397.165 188.385C392.962 177.531 387.052 167.418 379.659 158.429C369.866 146.582 357.526 135.947 341.656 134.45C354.832 128.149 369.105 124.467 383.685 123.61Z" id="svg_5" class="" fill-opacity="1"/><path fill="#919191" d="M99.4445 232.022C102.412 232.447 105.175 233.603 107.214 235.874C108.643 237.488 109.596 239.466 109.966 241.59C110.698 245.572 110.169 250.071 110.179 254.134C110.193 259.629 110.53 265.315 110.158 270.783C109.667 277.987 106.839 286.98 104.754 293.945C96.9245 320.106 85.3332 349.656 64.0223 367.884C61.5596 369.991 58.931 371.576 55.5681 371.307C53.6335 370.784 51.7678 369.9 50.4298 368.362C49.4762 367.265 49.0482 366.043 48.71 364.652C47.6725 360.387 47.5167 355.501 46.9983 351.119C45.8173 341.134 43.6343 329.309 44.3129 319.373C44.5848 315.392 45.3225 311.782 46.5257 307.981C49.016 300.115 52.5583 292.377 55.5904 284.694C59.2518 275.417 62.6175 265.856 66.6449 256.745C66.954 256.045 67.2733 255.296 67.876 254.8C67.9637 254.728 68.0561 254.662 68.1439 254.59C70.8563 252.367 73.8562 250.493 76.7562 248.524C80.2513 246.14 83.7093 243.702 87.1289 241.21C90.3098 238.908 96.3509 233.622 99.4445 232.022Z" id="svg_6" class="" fill-opacity="1"/><path fill="#919191" d="M412.761 232.086C412.856 232.105 412.953 232.113 413.046 232.142C415.089 232.764 420.428 237.762 422.476 239.298C426.881 242.602 431.458 245.733 436.021 248.815C438.336 250.379 440.818 251.861 443.014 253.581C444.07 254.408 444.828 255.178 445.439 256.39C446.84 259.172 447.864 262.25 449.007 265.152L455.092 280.598L461.384 296.489C463.097 300.767 464.931 305.045 466.246 309.467C467.24 312.811 467.814 316.207 468.088 319.685C468.742 327.985 466.647 339.621 465.642 348.124C465.066 353.001 464.595 362.121 463.111 366.321C462.268 368.708 460.003 370.045 457.826 371.049C457.737 371.068 457.65 371.088 457.561 371.104C454.716 371.636 452.607 370.978 450.22 369.361C447.702 367.657 445.49 365.399 443.343 363.257C425.762 345.713 414.959 318.678 407.951 295.31C405.944 288.616 404.014 281.817 402.682 274.954C401.494 268.834 402.23 262.082 402.192 255.856C402.165 251.419 401.642 246.467 402.305 242.103C402.596 240.186 403.192 238.427 404.316 236.832C406.384 233.898 409.344 232.666 412.761 232.086Z" id="svg_7" class="" fill-opacity="1"/><path fill="#b6b6b6" d="M267.395 244.274C268.503 244.229 269.374 244.39 270.436 244.716C288.946 250.396 307.213 257.061 325.604 263.132C328.388 264.051 332.169 264.038 334.587 265.657C336.425 266.888 337.443 268.847 337.793 270.995C339.344 280.499 331.721 293.15 326.321 300.502C323.805 303.637 321.314 306.579 317.463 308.044C308.486 304.169 299.688 299.903 290.205 297.358C285.003 295.961 279.699 294.866 274.447 293.672C271.779 293.066 268.881 292.601 266.326 291.633C265.046 291.147 263.503 290.013 262.997 288.692C262.602 287.663 262.495 286.456 262.457 285.359C262.206 278.152 262.467 270.853 262.477 263.635C262.483 259.291 262.14 254.744 262.443 250.432C262.518 249.351 262.706 248.284 263.206 247.312C264.092 245.593 265.604 244.796 267.395 244.274Z" id="svg_8" class="" fill-opacity="1"/><path fill="#b6b6b6" d="M243.798 244.28C244.639 244.211 245.573 244.322 246.376 244.583C247.875 245.071 248.932 245.989 249.59 247.423C250.068 248.463 250.244 249.544 250.336 250.677C250.81 256.464 250.422 262.684 250.414 268.508C250.406 274.065 250.758 279.839 250.388 285.37C250.312 286.498 250.176 287.741 249.72 288.782C249.012 290.398 247.36 291.312 245.768 291.859C243.474 292.647 240.992 293.089 238.625 293.627C233.104 294.884 227.485 295.982 222.036 297.521C212.652 300.172 204.067 304.414 195.084 308.093C192.332 306.841 190.414 304.866 188.426 302.65C183.524 296.74 179.381 289.46 177.013 282.175C175.645 277.963 174.172 272.196 176.414 268.041C177.025 266.908 177.99 265.802 179.178 265.259C181.226 264.325 183.831 264.054 186.019 263.451C189.294 262.549 192.545 261.416 195.766 260.338L226.175 250.082C232.022 248.111 237.876 246.006 243.798 244.28Z" id="svg_9" class="" fill-opacity="1"/><path fill="#b6b6b6" d="M217.535 360.541C223.209 360.459 228.883 360.423 234.557 360.434C237.789 360.425 241.348 360.137 244.537 360.637C245.77 360.83 247.07 361.165 247.985 362.064C250.012 364.054 250.119 366.159 250.194 368.825C250.497 379.642 250.199 390.547 250.206 401.373C250.21 407.597 250.753 416.668 249.908 422.552C249.703 423.983 249.327 424.984 248.277 426.019C246.308 427.961 243.525 427.864 240.965 427.927C236.609 427.867 232.253 427.846 227.896 427.865C224.642 427.893 221.193 428.147 217.962 427.744C216.474 427.559 214.987 427.166 213.659 426.457C211.3 425.197 209.073 422.593 208.37 419.991C207.3 416.034 207.777 411.113 207.783 407.022L207.785 392.518C207.784 386.066 207.314 377.756 207.897 371.495C208.085 369.47 208.433 367.558 209.522 365.806C211.386 362.807 214.173 361.262 217.535 360.541Z" id="svg_10" class="" fill-opacity="1"/><path fill="#b6b6b6" d="M267.331 360.533C272.763 360.333 278.241 360.444 283.677 360.438C287.479 360.435 291.685 360.058 295.412 360.785C298.568 361.401 300.956 363.002 302.687 365.71C303.481 366.954 304.107 368.367 304.281 369.842C304.622 372.73 304.493 375.705 304.496 378.611L304.489 392.51C304.488 397.883 305.121 415.663 304.017 419.831C303.171 423.027 300.679 425.276 297.922 426.86C296.684 427.35 295.491 427.61 294.169 427.732C290.514 428.068 268.164 428.262 265.969 427.281C264.451 426.602 263.177 425.287 262.599 423.725C261.873 421.761 262.032 372.481 262.27 367.321C262.321 366.215 262.371 365.018 262.868 364.01C263.733 362.256 265.553 361.155 267.331 360.533Z" id="svg_11" class="" fill-opacity="1"/><path fill="#b6b6b6" d="M243.375 302.104C244.441 301.933 245.637 302.007 246.658 302.367C248.053 302.858 249.154 303.876 249.705 305.253C250.558 307.386 250.397 340.705 250.165 344.913C250.109 345.935 249.984 346.936 249.556 347.877C248.989 349.124 248.161 350.049 246.861 350.523C245.823 350.902 244.695 351.054 243.598 351.122C238.117 351.459 232.418 351.092 226.917 351.102C221.257 351.111 215.2 351.554 209.573 350.974C207.94 350.806 206.664 350.41 205.186 349.729L204.913 349.516C201.274 346.629 196.45 337.74 195.974 333.123C195.587 329.373 196.882 325.097 199.291 322.199C201.26 319.829 203.876 318.034 206.379 316.272C217.37 308.537 229.94 303.414 243.375 302.104Z" id="svg_12" class="" fill-opacity="1"/><path fill="#b6b6b6" d="M266.596 302.043C269.237 301.927 272.024 302.391 274.616 302.853C286.717 305.009 297.988 310.36 307.845 317.618C311.987 320.668 315.593 324.265 316.306 329.607C317.156 335.979 312.825 343.191 309.052 348.086C308.744 348.381 308.429 348.671 308.092 348.934C306.99 349.799 305.765 350.465 304.378 350.725C299.339 351.67 289.373 351.117 283.967 351.119C278.558 351.12 272.373 351.609 267.032 350.972C265.52 350.792 263.925 349.976 263.062 348.681C262.457 347.772 262.368 346.269 262.289 345.197C261.801 338.579 262.232 331.019 262.23 324.319C262.228 319.138 261.64 309.766 262.601 304.964C263.661 303.318 264.74 302.586 266.596 302.043Z" id="svg_13" class="" fill-opacity="1"/><path fill="#dff250" d="M309.798 83.5778C311.104 83.5721 312.155 83.7076 313.381 84.1769C320.291 86.8228 327.987 91.1779 334.742 94.4937C344.736 99.399 355.029 104.047 364.805 109.353C365.957 109.979 367.328 110.767 367.671 112.135C368.006 113.47 367.893 115.218 367.109 116.383C366.529 117.245 365.706 117.665 364.748 118.011C361.782 119.082 358.313 119.409 355.207 119.957L340.08 122.684L311.224 127.927C306.592 128.776 301.503 130.158 296.823 130.323C295.597 130.377 294.385 130.052 293.351 129.391C291.608 128.299 290.161 126.385 289.771 124.346C289.539 123.136 289.802 122.001 290.16 120.844C290.955 118.269 292.398 115.748 293.531 113.301C295.242 109.603 296.87 105.723 298.106 101.838C299.425 97.6876 300.383 91 302.786 87.5588C304.542 85.0441 306.878 84.0673 309.798 83.5778Z" id="svg_14" class="" fill-opacity="1"/><path fill="#dff250" d="M200.892 83.5723C201.224 83.5523 201.544 83.5366 201.877 83.5509C204.737 83.6732 207.342 84.8154 209.199 87.0278C211.389 89.6374 212.398 95.7042 213.366 98.9661C214.778 103.728 216.544 108.638 218.616 113.148C219.731 115.574 221.267 117.955 222.101 120.489C222.469 121.606 222.702 122.811 222.549 123.988C222.279 126.071 220.992 128.01 219.298 129.217C217.953 130.175 216.405 130.276 214.802 130.222C210.243 130.068 205.279 128.696 200.772 127.871L173.491 122.86C168.818 122.081 149.51 119.17 146.5 117.439C145.412 116.813 144.795 115.982 144.513 114.751C144.224 113.496 144.411 112.168 145.134 111.09C145.63 110.351 146.55 109.885 147.315 109.469C156.956 104.214 167.226 99.6383 177.086 94.7679L190.846 87.9729C194.006 86.4174 197.458 84.3771 200.892 83.5723Z" id="svg_15" class="" fill-opacity="1"/><path fill="#919191" d="M355.807 329.662C356.541 329.879 357.369 330.187 357.78 330.884C358.908 332.796 358.13 363.676 357.515 367.033C355.295 379.154 348.088 385.682 339.203 393.296C336.412 395.688 333.679 398.323 330.643 400.397C329.803 400.283 329.184 400.087 328.703 399.354C328.31 398.754 328.215 397.691 328.168 396.995C327.999 394.444 328.317 391.694 328.312 389.116C328.301 382.781 327.863 376.114 328.776 369.833C330.715 356.496 338.604 348.819 346.972 339.187C349.682 336.068 352.503 332.143 355.807 329.662Z" id="svg_16" class="" fill-opacity="1"/><path fill="#919191" d="M156.051 329.674C156.935 329.99 157.621 330.535 158.288 331.185C160.367 333.208 162.1 335.591 164.025 337.759C168.058 342.301 172.488 346.779 176.061 351.685C184.519 363.296 184.02 373.823 184.009 387.385C184.006 390.844 184.553 394.785 183.935 398.171C183.713 399.385 183.294 399.86 182.28 400.534C179.75 399.523 166.563 387.785 164.176 385.27C162.536 383.533 161.068 381.641 159.794 379.62C152.61 368.309 154.31 356.194 154.248 343.461C154.23 339.874 153.575 334.893 154.415 331.527C154.67 330.504 155.204 330.172 156.051 329.674Z" id="svg_17" class="" fill-opacity="1"/><path fill="#b6b6b6" d="M292.337 59.4339C293.283 59.5035 293.882 59.6341 294.538 60.4047C296.614 62.842 295.258 75.3251 294.756 78.8855C292.089 97.8175 282.51 116.311 272.219 132.179C270.399 134.985 268.337 139.079 265.595 141.006C264.172 142.006 262.616 141.894 260.986 141.604C260.072 141.145 259.169 140.512 258.506 139.728C257.674 138.746 257.22 137.414 257.381 136.125C257.696 133.599 258.829 130.911 259.62 128.501L263.621 116.353L270.127 96.38C271.7 91.5426 273.092 86.4409 275.388 81.8892C277.208 78.2827 289.425 61.732 292.337 59.4339Z" id="svg_18" class="" fill-opacity="1"/><path fill="#b6b6b6" d="M218.725 59.4256C219.722 59.5106 220.266 59.6609 220.988 60.3849C223.144 62.5459 224.969 65.31 226.829 67.7324C230.323 72.2811 234.415 76.9547 237.063 82.0575C240.082 87.8758 242.903 98.6232 245.09 105.349C248.204 114.924 251.747 124.474 254.488 134.155C254.738 135.038 255.01 135.992 254.961 136.917C254.863 138.748 253.676 139.932 252.369 141.058C251.374 141.579 250.388 141.883 249.251 141.836C247.677 141.77 246.389 140.959 245.375 139.804C242.794 136.868 240.743 133.137 238.625 129.838C227.048 111.8 214.976 86.0858 216.862 64.104C217.022 62.2417 217.245 60.6843 218.725 59.4256Z" id="svg_19" class="" fill-opacity="1"/><path fill="#919191" d="M353.782 391.974C354.432 391.99 355.141 392.106 355.757 392.318C356.593 392.61 357.28 393.22 357.669 394.017C359.235 397.199 357.946 413.795 356.779 417.502C355.946 420.109 354.702 422.566 353.093 424.78C350.772 427.998 335.546 444.543 332.737 446.001C332.137 446.011 331.599 446.006 331.014 445.854C330.13 445.623 329.285 445.213 328.856 444.366C327.76 442.208 328.178 426.33 328.497 423.32C328.723 421.147 329.199 419.008 329.918 416.945C330.783 414.439 332.41 412.006 334.099 409.98C336.505 407.092 351.029 393.306 353.782 391.974Z" id="svg_20" class="" fill-opacity="1"/><path fill="#919191" d="M157.04 392.012C157.601 391.997 158.198 392.035 158.736 392.206C161.056 392.945 175.591 407.019 177.937 409.66C179.199 411.082 180.248 412.549 181.127 414.237C184.771 421.234 183.99 428.669 184.007 436.289C184.012 438.576 184.452 441.427 183.683 443.6C183.201 444.962 182.409 445.353 181.161 445.926C180.695 445.956 180.157 446.016 179.696 445.914C177.393 445.405 162.769 429.138 160.501 426.368C159.293 424.897 158.223 423.318 157.304 421.651C153.7 415.147 154.273 408.382 154.229 401.214C154.216 399.12 153.804 396.54 154.452 394.542C154.906 393.139 155.789 392.671 157.04 392.012Z" id="svg_21" class="" fill-opacity="1"/><path fill="#b6b6b6" d="M462.157 276.648C462.565 276.66 462.897 276.706 463.263 276.902C465.017 277.837 466.604 279.535 467.968 280.945C474.89 288.101 479.469 296.966 482.403 306.422C485.327 315.844 488.551 332.557 486.008 342.065C484.792 346.612 482.309 350.785 480.122 354.917C479.311 356.531 478.66 358.213 477.044 359.188C476.451 359.545 476.001 359.623 475.322 359.473C474.571 358.884 474.365 358.171 474.262 357.259C473.907 354.119 474.393 350.507 474.43 347.311C474.577 339.557 474.527 331.8 474.278 324.049C473.761 310.53 471.092 300.466 465.348 288.297C464.128 285.712 461.09 280.985 460.621 278.443C460.911 277.634 461.529 277.195 462.157 276.648Z" id="svg_22" class="" fill-opacity="1"/><path fill="#b6b6b6" d="M37.3138 290.022C38.2155 291.226 42.3777 295.084 43.6696 295.805L42.9428 297.713C37.1761 313.232 37.7607 329.052 37.9025 345.318C37.9317 348.678 38.7264 354.478 38.1426 357.525C37.9937 358.301 37.5917 358.901 36.8823 359.282C36.2927 359.598 35.8248 359.561 35.2036 359.409C32.6244 357.433 26.8776 344.667 26.0469 341.163C23.1813 329.077 29.3173 302.87 36.0287 292.156C36.4028 291.405 36.854 290.722 37.3138 290.022Z" id="svg_23" class="" fill-opacity="1"/><path fill="#b6b6b6" d="M37.3138 290.022C38.2155 291.226 42.3777 295.084 43.6696 295.805L42.9428 297.713C42.7781 297.404 42.6763 297.316 42.3597 297.145C40.3913 296.079 37.7199 292.434 36.0287 292.156C36.4028 291.405 36.854 290.722 37.3138 290.022Z" id="svg_24" class="" fill-opacity="1"/><path fill="#b6b6b6" d="M110.303 296.597C110.856 296.622 111.215 296.715 111.724 296.93C113.046 298.529 112.438 307.216 112.239 309.35C111.069 321.83 100.823 339.837 91.2344 347.815L90.4598 347.933C89.9189 347.615 89.9049 347.585 89.6594 347.006C89.7193 346.077 89.9961 345.278 90.3458 344.425C91.6538 341.233 93.3949 338.151 94.8599 335.021C97.3916 329.483 99.8149 323.895 102.128 318.263C103.798 314.161 105.463 310.021 106.934 305.843C108.013 302.777 108.807 299.49 110.303 296.597Z" id="svg_25" class="" fill-opacity="1"/><path fill="#b6b6b6" d="M401.189 296.368C401.301 296.43 401.416 296.488 401.524 296.556C403.262 297.656 404.434 302.987 405.137 305.027C408.237 314.012 411.959 322.859 415.872 331.522C417.603 335.354 421.92 343.192 422.725 346.66C422.549 347.41 422.252 347.629 421.74 348.19C419.909 346.985 418.322 345.385 416.86 343.763C410.027 336.183 402.975 323.598 400.768 313.605C399.813 309.28 399.558 304.005 399.863 299.562C399.959 298.153 400.11 297.335 401.189 296.368Z" id="svg_26" class="" fill-opacity="1"/><path fill="#b6b6b6" d="M37.3138 290.022C39.5729 286.184 45.2753 278.299 49.573 276.986C50.2509 276.779 50.701 276.823 51.3072 277.167C51.7409 278.06 51.4897 278.909 51.1661 279.803C50.3878 281.952 49.1063 284.039 48.0839 286.094C46.496 289.277 45.0236 292.516 43.6696 295.805C42.3777 295.084 38.2155 291.226 37.3138 290.022Z" id="svg_27" class="" fill-opacity="1"/></g></svg>