<svg xmlns="http://www.w3.org/2000/svg" xmlns:xlink="http://www.w3.org/1999/xlink" width="545" height="545" style=""><rect id="backgroundrect" width="100%" height="100%" x="0" y="0" fill="none" stroke="none"/>
	
	
	
	
	
	
	
	
	
	
	
	
	
	
	
	
	
	
	
<g class="currentLayer" style=""><title>Layer 1</title><path fill="#484848" transform="scale(1.0644500255584717) " d="M199.715 59.2191C200.676 55.3936 201.038 51.2799 201.614 47.3759L204.908 25.2604C205.419 21.9371 205.732 18.2856 206.648 15.052C206.939 14.0261 207.309 12.7742 208.203 12.114C210.324 10.5461 214.788 10.501 217.396 9.92627C238.876 5.19464 253.611 3.44951 275.502 7.20088C279.694 7.91933 297.025 10.6457 299.375 12.3365C300.094 12.8536 300.49 13.46 300.745 14.3041C301.889 18.0889 302.088 22.4366 302.682 26.3622L306.532 51.6212C306.81 53.4269 307.127 58.1058 308.049 59.438C308.742 60.4392 318.756 65.7434 320.669 66.9233C332.54 74.1644 344.47 81.3089 356.457 88.3561C363.174 92.3464 369.809 96.5345 376.606 100.383C381.206 102.988 386.55 104.585 391.363 106.838C407.283 114.289 423.109 124.88 433.365 139.412C448.278 160.543 451.351 191.683 449.349 216.924C448.874 222.906 447.912 228.766 446.894 234.675C448.325 236.726 450.134 238.626 451.741 240.549C454.684 244.071 457.61 247.77 460.107 251.622C472.32 270.288 479.95 291.575 482.378 313.749C483.263 322.639 483.231 331.419 483.221 340.336C483.215 345.723 483.444 351.158 483.242 356.538C483.216 357.238 483.219 358.546 482.957 359.174C481.98 361.522 449.875 391.701 445.524 395.912C440.31 400.957 435.249 406.245 429.905 411.141C428.745 412.203 427.212 413.188 425.574 413.057C424.559 412.976 423.885 412.519 423.232 411.762C421.04 409.217 419.427 405.403 417.93 402.393C408.836 384.115 403.359 362.325 404.841 341.847C403.421 339.522 401.598 337.382 399.924 335.233C395.426 329.456 390.426 323.734 386.381 317.644C384.714 320.828 382.817 324.104 380.741 327.035C375.314 334.693 369.484 340.777 366.707 350.105C365.274 355.077 364.614 360.24 364.75 365.412C364.882 370.526 366.009 375.706 366.831 380.747L371.238 407.65C372.002 412.31 373.039 417.078 373.46 421.778C373.848 426.12 373.571 430.591 373.413 434.942L372.779 452.102C372.639 456.006 373.15 464.829 371.938 467.938C371.484 469.103 370.512 469.833 369.515 470.531C366.973 472.312 363.887 473.697 361.129 475.144C352.88 479.41 344.497 483.412 335.994 487.146C331.893 488.907 327.67 490.366 323.574 492.145L322.156 492.827C318.903 493.583 315.704 495 312.534 496.08C309.466 497.126 306.158 497.939 303.184 499.199L302.672 499.403C298.835 500.076 295.232 501.551 291.457 502.436C278.97 505.363 265.471 507.71 252.627 507.492C217.878 506.901 183.581 494.022 152.886 478.533C148.223 476.18 139.081 472.14 135.634 468.579C134.924 465.353 135.028 461.973 134.905 458.687L134.418 441.377C134.247 435.592 133.368 427.258 133.994 421.795C134.408 418.189 135.135 414.629 135.697 411.044L140.422 382.202C141.436 375.951 142.765 369.599 142.762 363.247C142.747 358.353 141.956 353.492 140.421 348.845C136.43 337.024 126.752 328.734 121.193 317.708L102.81 341.584C102.502 347.074 102.978 352.57 102.434 358.068C100.73 374.247 96.0354 389.97 88.5897 404.435C87.2196 407.066 85.8606 409.984 83.9609 412.272C83.0478 412.661 82.1347 413.065 81.1225 413.053C80.1584 413.041 79.5221 412.614 78.7989 412.028C75.2395 409.147 72.0024 405.743 68.6599 402.609L48.7041 383.867C42.8061 378.316 36.8557 372.851 31.0133 367.238C28.7709 365.084 26.2845 363.061 24.2271 360.733C23.278 359.659 23.068 358.785 22.8898 357.386C22.2354 352.248 22.7671 346.288 22.7704 341.069C22.7765 331.558 22.4479 322.014 23.0445 312.518C24.5249 288.96 32.258 265.29 47.7463 247.157C51.2125 243.098 55.0062 239.539 59.0036 236.015C55.6455 216.609 56.2893 195.54 59.9261 176.217C61.4773 167.975 63.6423 159.323 67.0862 151.653C75.3371 133.278 91.5378 119.502 109.117 110.317C112.665 108.464 116.264 106.604 119.962 105.068C122.85 103.869 125.893 103.087 128.643 101.573C142.454 93.9664 155.878 85.4475 169.434 77.3865L188.227 66.2252C191.963 64.0074 195.868 61.8712 199.443 59.409L199.715 59.2191Z" id="svg_1" class="" fill-opacity="1"/><path fill="#919191" transform="scale(1.0644500255584717) " d="M261.329 21.0207C262.843 20.9256 264.216 21.059 265.392 22.1068C268.644 25.0045 272.359 31.2483 275.041 35.0382L291.496 58.1596C294.323 62.1352 296.997 66.3362 300.023 70.1538C300.716 71.0276 301.379 71.6752 302.307 72.2996C306.594 75.1847 311.65 77.4216 316.229 79.8411L346.955 96.2457C351.405 98.629 356.277 100.744 360.52 103.444C362.108 104.454 363.336 105.422 363.716 107.364C364.109 109.377 363.733 111.619 362.196 113.075C360.05 115.107 354.531 117.027 351.629 118.838C339.471 126.426 331.208 137.85 325.779 150.917C319.261 166.604 317.199 183.893 317.223 200.762C317.227 203.298 317.211 205.841 317.373 208.374C317.727 213.908 318.828 219.913 316.834 225.26C315.079 229.967 310.383 235.62 307.451 239.85L293.808 259.626C286.678 269.727 279.747 279.984 272.73 290.165C269.533 294.804 266.505 299.734 263.008 304.141C262.277 305.062 261.51 305.943 260.465 306.511C259.221 306.463 258.469 306.033 257.556 305.23C256.409 300.477 257.081 287.439 257.084 281.626L257.071 234.268L257.074 167.875L257.057 146.431C257.06 141.875 256.948 137.265 257.266 132.718C257.875 124.015 261.411 116.2 267.666 110.076C270.402 107.397 273.506 105.057 276.393 102.537C270.849 98.119 264.966 92.0602 261.684 85.7683C259.562 81.6491 258.137 77.2061 257.47 72.6204C256.811 67.8316 256.616 26.7309 257.546 24.1732C258.154 22.5015 259.803 21.6675 261.329 21.0207Z" id="svg_2" class="" fill-opacity="1"/><path fill="#919191" transform="scale(1.0644500255584717) " d="M242.293 21.0084C243.024 20.9984 243.741 20.9981 244.455 21.1758C246.442 21.6702 247.439 22.991 248.466 24.6334C249.002 33.4382 248.599 42.4542 248.589 51.2844C248.581 58.28 249.144 65.6707 248.221 72.595C246.847 82.9101 241.771 90.9147 234.357 97.9644C232.722 99.5195 231.097 101.145 229.302 102.516C232.474 105.177 235.839 107.797 238.736 110.759C243.229 115.354 246.946 121.93 248.003 128.32C249.182 135.449 248.616 143.254 248.606 150.481L248.598 185.469L248.601 265.291C248.595 277.124 248.778 288.982 248.609 300.812C248.585 302.428 248.82 304.578 247.517 305.743C246.921 306.277 245.983 306.61 245.181 306.443C244.335 306.268 243.802 305.598 243.29 304.964C239.577 300.362 236.475 295.075 233.116 290.197L212.521 260.431C209.667 256.853 207.187 252.717 204.574 248.936C201.029 243.807 190.292 229.469 188.656 224.778C186.534 218.699 188.405 211.44 188.497 205.115C188.764 186.783 187.043 167.663 179.851 150.599C175.754 140.877 170.026 131.874 162.116 124.799C158.723 121.765 154.754 118.927 150.69 116.866C148.605 115.809 146.196 115.022 144.301 113.652C143.363 112.973 142.65 112.173 142.197 111.099C141.594 109.667 141.555 108.105 142.174 106.678C142.572 105.759 143.099 104.998 143.899 104.386C146.978 102.025 150.949 100.38 154.393 98.5731L172.141 89.1037L192.714 78.1806C195.683 76.6027 202.397 73.6188 204.551 71.4145C207.964 67.922 210.71 63.1131 213.557 59.1144L231.959 33.2405C234.447 29.7206 236.884 25.5412 239.895 22.4848C240.619 21.749 241.336 21.3715 242.293 21.0084Z" id="svg_3" class="" fill-opacity="1"/><path fill="#919191" transform="scale(1.0644500255584717) " d="M328.197 232.333C329.662 232.226 331.067 232.445 332.472 232.846C340.619 235.173 348.552 238.486 356.67 240.977C360.711 242.203 364.776 243.349 368.863 244.413C372.268 245.292 376.346 245.869 379.447 247.528C381.866 248.822 383.536 250.703 384.313 253.359C385.674 258.01 384.465 267.25 384 272.147C381.402 299.49 373.631 315.879 359.308 339.092C353.967 347.746 348.436 356.321 343.823 365.395C341.516 369.932 339.498 374.857 338.257 379.798C337.717 381.952 337.565 386.071 336.277 387.851C335.841 388.454 335.68 388.483 334.997 388.648C332.946 388.095 331.548 386.055 330.198 384.52C325.472 379.02 320.497 373.695 315.648 368.302L287.261 336.733L277.121 325.51C275.257 323.484 273.156 321.539 271.502 319.34C270.583 318.118 270.013 316.817 269.766 315.302C269.405 313.088 269.709 311.312 270.72 309.342C272.683 305.517 275.538 301.91 277.979 298.371L290.937 279.608L309.562 252.486C312.967 247.508 316.243 242.314 319.894 237.52C322.187 234.509 324.361 232.848 328.197 232.333Z" id="svg_4" class="" fill-opacity="1"/><path fill="#919191" transform="translate(0.5617977380752563,0) scale(1.0644500255584717) " d="M176.141 232.349C176.302 232.335 176.463 232.312 176.625 232.306C179.094 232.219 181.61 233.161 183.448 234.798C187.339 238.266 194.661 250.29 198.083 255.131L221.6 288.723C225.854 294.809 230.569 300.873 234.391 307.232C235.358 308.841 235.921 310.154 236.015 312.065C236.14 314.619 235.62 316.152 234.196 318.247C232.676 320.482 230.499 322.452 228.694 324.473L217.187 337.437L176.022 383.901C174.825 385.31 172.908 388.147 171.017 388.483C170.438 388.585 169.935 388.419 169.509 388.019C168.195 386.782 168.232 383.501 167.945 381.847C167.091 376.926 165.056 372.09 162.932 367.589C158.511 358.222 152.883 349.5 147.444 340.708C132.57 316.66 124.286 300.208 121.662 271.753C121.266 267.468 120.287 258.518 121.069 254.609C121.419 252.799 122.232 251.11 123.428 249.708C124.452 248.529 125.85 247.511 127.318 246.965C129.732 246.068 132.452 245.577 134.953 244.935C138.916 243.916 142.856 242.812 146.771 241.625C152.732 239.777 158.666 237.841 164.57 235.819C168.312 234.556 172.187 232.713 176.141 232.349Z" id="svg_5" class="" fill-opacity="1"/><path fill="#919191" transform="scale(1.0644500255584717) " d="M260.996 321.526C261.895 321.496 262.758 321.516 263.601 321.874C264.424 322.223 265.154 323.058 265.76 323.705C277.846 336.596 289.407 350.077 301.208 363.238L323.3 387.92C325.494 390.37 327.894 392.66 330.034 395.148C331.007 396.279 332.404 397.905 332.899 399.314C333.532 401.115 333.792 403.288 333.828 405.191C333.991 413.543 333.01 422.163 332.515 430.517C332.144 436.787 332.188 443.696 331.397 449.872C331.206 451.364 330.827 452.838 330.171 454.197C326.697 461.398 319.689 460.327 313.075 461.113C309.353 461.522 305.684 462.317 302.127 463.486C289.055 468.294 283.071 474.066 272.861 482.823C270.51 484.839 268.185 487.05 265.676 488.858C264.393 489.783 262.268 491.043 260.607 490.571C259.657 490.3 258.107 489.175 257.659 488.276C257.058 487.068 257.129 484.495 257.101 483.119C256.815 469.187 257.053 455.19 257.062 441.25L257.082 368.911L257.079 341.224C257.065 336.258 256.457 329.044 257.491 324.298C258.526 322.933 259.432 322.237 260.996 321.526Z" id="svg_6" class="" fill-opacity="1"/><path fill="#919191" transform="scale(1.0644500255584717) " d="M242.758 321.535C243.356 321.512 243.917 321.501 244.507 321.616C246.409 321.989 247.41 323.27 248.467 324.771C248.753 328.492 248.612 332.302 248.613 336.035L248.591 355.605L248.597 413.285L248.602 462.295L248.604 476.602C248.607 479.948 248.739 483.303 248.401 486.636C248.365 486.986 248.349 487.347 248.25 487.687C247.944 488.741 246.65 489.8 245.682 490.236C244.347 490.837 242.844 490.69 241.597 489.964C238.515 488.171 235.725 485.236 233.002 482.897C227.254 477.958 221.49 472.404 214.925 468.582C211.783 466.752 208.425 465.366 205.073 463.976C201.05 462.672 196.833 461.44 192.612 461.025C189.321 460.701 185.742 460.989 182.548 460.115C179.561 459.271 177.06 457.224 175.642 454.464C174.942 453.127 174.643 451.794 174.45 450.312C173.421 442.397 173.401 434.176 172.926 426.193L172.141 412.71C171.977 409.946 171.683 407.104 171.778 404.337C171.832 402.743 172.273 401.165 172.775 399.656C173.301 398.079 174.428 396.708 175.491 395.448C178.443 391.948 181.778 388.679 184.844 385.261L207.889 359.442L228.031 336.977C232.147 332.373 236.158 327.58 240.499 323.191C241.187 322.494 241.878 321.977 242.758 321.535Z" id="svg_7" class="" fill-opacity="1"/><path fill="#919191" transform="scale(1.0644500255584717) " d="M120.467 112.582C121.674 112.469 122.886 112.438 124.097 112.489C134.786 112.909 151.705 122.744 158.647 130.353C160.724 132.631 166.43 139.705 166.085 142.868C165.751 145.939 151.396 150.108 148.484 151.144C145.69 152.135 142.929 153.213 140.204 154.377C136.071 156.188 132.098 158.244 128.455 160.925C120.863 166.513 115.107 174.437 113.248 183.79C112.311 188.505 111.742 192.919 108.936 196.987C105.837 201.48 97.9191 206.845 93.5197 210.679C89.6922 213.994 77.3741 226.207 73.3802 226.936C72.024 227.184 70.6501 226.775 69.5632 225.952C66.1367 223.355 65.5887 216.194 64.9452 212.129C61.1223 187.978 64.0198 161.918 78.8213 141.751C87.5263 129.891 105.403 114.946 120.467 112.582Z" id="svg_8" class="" fill-opacity="1"/><path fill="#919191" transform="scale(1.0644500255584717) " d="M380.183 112.582C387.67 111.651 393.759 114.793 400.06 118.378C403.473 120.319 406.802 122.329 409.946 124.693C427.261 137.575 438.588 156.948 441.323 178.354C443.049 191.029 442.357 203.645 440.059 216.197C439.585 218.786 439.129 222.743 437.437 224.838C436.4 226.121 434.724 226.83 433.1 226.926C431.999 226.99 431.097 226.681 430.145 226.144C426.309 223.981 419.197 216.829 415.625 213.616C412.709 210.938 409.614 208.37 406.531 205.884C401.239 201.618 396.201 198.069 394.194 191.234C392.76 186.351 392.714 181.393 390.67 176.61C385.206 163.827 372.988 156.902 360.505 152.307C355.811 150.578 350.987 149.174 346.346 147.305C344.464 146.547 340.355 144.885 339.772 142.776C339.124 140.43 342.987 135.406 344.306 133.633C350.609 125.165 359.568 119.905 369.181 115.944C372.787 114.458 376.302 113.134 380.183 112.582Z" id="svg_9" class="" fill-opacity="1"/><path fill="#919191" transform="scale(1.0644500255584717) " d="M337.121 152.316C338.177 152.34 339.113 152.5 340.121 152.803C344.238 154.036 348.28 155.712 352.327 157.166C355.815 158.418 359.404 159.518 362.795 161.015C371.294 164.725 378.294 171.192 382.663 179.372C384.933 183.711 386.443 188.408 387.126 193.257C388.149 200.371 387.518 209.577 387.494 216.932C387.476 222.732 387.854 228.612 387.643 234.397C387.605 235.427 387.479 236.475 387.151 237.456C386.628 239.016 385.366 240.394 383.871 241.076C381.535 242.143 379.13 241.301 376.872 240.51L346.975 230.373C342.007 228.691 335.689 227.22 331.218 224.582C328.754 223.127 327.609 221.026 326.952 218.292C326.346 215.769 326.263 212.969 326.029 210.384C324.665 195.323 325.849 180.519 328.835 165.722C329.48 162.526 329.983 158.336 331.829 155.592C333.093 153.712 334.929 152.697 337.121 152.316Z" id="svg_10" class="" fill-opacity="1"/><path fill="#919191" transform="scale(1.0644500255584717) " d="M167.74 152.312C168.665 152.296 169.682 152.454 170.533 152.82C172.779 153.787 174.129 155.569 174.961 157.812C176.14 160.993 176.654 164.545 177.292 167.867C179.982 181.891 180.729 195.435 179.722 209.663C179.461 213.349 179.448 217.52 177.833 220.912C176.938 222.791 175.763 223.862 173.964 224.866C169.566 227.319 163.945 228.644 159.146 230.261C149.203 233.611 139.2 236.851 129.311 240.354C128.281 240.716 127.232 241.096 126.166 241.34C124.412 241.741 122.493 241.649 120.96 240.632C119.362 239.571 118.551 238.063 118.245 236.212C117.879 233.995 118.139 231.548 118.177 229.304C118.212 226.197 118.229 223.089 118.228 219.981L118.223 205.07C118.217 193.198 118.867 184.454 126.155 174.449C134.343 163.209 144.39 160.418 156.701 155.991C160.2 154.733 164.086 152.88 167.74 152.312Z" id="svg_11" class="" fill-opacity="1"/><path fill="#dff250" transform="translate(-2.8089888095855713,11.235955238342285) scale(1.0644500255584717) " d="M105.04878205211769,209.7198315306071 C106.34478205211768,207.9818315306071 108.09078205211769,204.91183153060712 110.39178205211769,204.5588315306071 C111.08178205211769,204.4528315306071 111.83778205211769,204.58883153060714 112.41678205211768,204.98983153060715 C113.34578205211768,205.63283153060712 113.68278205211769,206.78783153060715 113.79078205211769,207.85283153060715 C114.07878205211769,210.68483153060714 113.30878205211769,213.79583153060713 113.21578205211769,216.66383153060713 C113.09178205211768,218.87683153060715 113.2137820521177,221.32183153060714 112.80678205211768,223.48783153060714 C112.93078205211769,226.31483153060714 112.68378205211769,229.22583153060714 112.60878205211769,232.05783153060713 C112.45978205211769,237.65783153060715 112.35378205211768,243.34183153060712 112.62878205211769,248.93983153060714 C112.81378205211769,252.68783153060713 112.98978205211769,256.48183153060717 113.45878205211768,260.20683153060713 C114.11778205211769,265.44583153060717 115.46178205211768,270.68283153060713 114.97078205211768,275.99483153060714 C114.40678205211769,282.07883153060715 112.18878205211769,288.05683153060716 109.58778205211769,293.5438315306071 C102.80478205211769,307.8538315306071 92.39778205211769,321.33283153060717 80.68078205211769,331.94683153060714 C77.90198205211769,334.46483153060717 74.87118205211769,337.30683153060716 71.30448205211769,338.58583153060715 C70.47528205211769,338.3298315306071 69.69008205211769,338.05983153060714 68.95808205211769,337.58183153060713 C67.96278205211769,336.93283153060713 67.14918205211768,336.0388315306071 66.92678205211769,334.8418315306071 C66.73878205211768,333.8298315306071 66.98298205211769,332.83083153060716 67.27618205211769,331.8638315306072 C68.16398205211769,328.93383153060716 69.47818205211769,326.0388315306071 70.58538205211768,323.18283153060713 C72.86108205211768,317.3128315306071 75.05228205211769,311.38883153060715 76.57658205211769,305.27183153060713 C79.24768205211768,294.55383153060717 79.02688205211768,285.07683153060714 79.84798205211769,274.26783153060717 C81.59608205211768,251.25383153060716 90.40088205211768,229.68883153060716 103.97078205211768,211.15083153060715 L105.04878205211769,209.7198315306071 z" id="svg_12" class="" fill-opacity="1"/><path fill="#dff250" transform="scale(1.0644500255584717) " d="M395.27 211.277C395.957 211.375 396.616 211.475 397.182 211.905C400.705 214.586 405.733 222.741 408.224 226.729C418.15 242.615 424.947 261.438 426.361 280.192C427.112 290.155 426.932 299.804 429.102 309.643C430.445 315.731 432.419 321.566 434.618 327.39C435.997 331.042 438.937 336.71 439.36 340.284C439.497 341.444 439.234 342.489 438.48 343.395C437.439 344.647 436.055 345.137 434.494 345.337L434.175 345.209C434.098 345.179 434.02 345.153 433.944 345.122C431.153 344.006 428.47 341.351 426.234 339.357C413.38 327.894 401.541 312.612 394.97 296.607C393.061 291.958 391.447 286.93 391.237 281.873C390.965 275.323 392.789 268.752 393.308 262.225C394.209 250.89 393.911 238.999 393.278 227.658C393.126 224.944 391.861 214.417 392.829 212.804C393.322 211.983 394.425 211.582 395.27 211.277Z" id="svg_15" class="" fill-opacity="1"/><path fill="#dff250" transform="scale(1.0644500255584717) " d="M81.3576 228.495C82.6733 228.407 83.7859 228.649 84.7671 229.575C85.4259 230.2 85.7842 231.079 85.7508 231.987C85.6229 234.851 82.0406 241.76 80.8453 244.762C79.5691 247.973 78.374 251.214 77.2612 254.485C75.0329 261.021 73.2575 267.703 71.9476 274.483C71.1241 278.886 70.8958 283.372 69.5535 287.675C66.9516 296.017 62.1748 299.83 58.4348 306.998C56.3843 310.928 55.4986 315.205 54.1419 319.386C51.9917 326.013 47 333.512 41.9865 338.355C40.0969 340.18 38.8381 340.826 36.2327 340.768C34.772 340.371 33.6092 339.509 32.8737 338.181C31.2941 335.328 31.5393 331.158 31.4701 327.987C31.2037 315.78 32.0892 303.953 35.2843 292.124C40.9856 271.015 52.4388 252.77 68.7096 238.206C72.5914 234.731 76.832 231.095 81.3576 228.495Z" id="svg_16" class="" fill-opacity="1"/><path fill="#dff250" transform="translate(0.5617977380752563,0) scale(1.0644500255584717) " d="M422.564 228.468C422.853 228.465 423.141 228.462 423.429 228.481C427.776 228.775 443.023 243.744 446.462 247.625C466.97 270.769 476.058 300.511 474.122 331.204C473.907 334.615 473.943 337.665 471.203 340.075C470.137 340.519 469.134 340.893 467.955 340.77C465.56 340.52 463.622 338.419 462.159 336.683C457.816 331.529 453.698 325.663 451.538 319.235C450.025 314.736 448.976 310.125 446.761 305.88C443.978 300.545 439.621 296.47 437.259 290.759C434.715 284.609 434.561 277.95 433.176 271.52C431.16 262.163 428.197 253.181 424.673 244.29C423.733 241.92 419.503 233.441 419.899 231.34C420.154 229.986 421.492 229.146 422.564 228.468Z" id="svg_17" class="selected" fill-opacity="1"/><path fill="#919191" transform="scale(1.0644500255584717) " d="M352.363 365.905L352.726 366.164C353.834 368.287 355.898 383.78 356.512 387.465L359.412 404.712C360.464 410.708 361.619 416.561 362.171 422.638C362.579 427.144 362.416 431.891 362.058 436.402C361.704 440.876 360.596 452.487 359.139 456.346C358.735 457.417 357.97 458.404 357.08 459.117C354.636 461.075 351.552 460.492 348.689 460.184C346.939 459.99 345.108 459.878 343.382 459.53C341.468 459.144 339.579 458.335 338.503 456.621C336.772 453.861 338.501 445.034 338.92 441.491C341.931 415.976 347.163 391.032 352.363 365.905Z" id="svg_18" class="" fill-opacity="1"/><path fill="#919191" transform="scale(1.0644500255584717) " d="M152.76 365.924C153.098 366.191 153.314 366.471 153.475 366.871C154.68 369.861 155.487 375.786 156.193 379.163C159.082 392.634 161.606 406.181 163.761 419.788C165.145 428.48 166.321 437.204 167.287 445.952C167.57 448.67 168.157 451.774 167.95 454.482C167.88 455.397 167.434 456.337 166.875 457.055C164.826 459.681 161.08 459.807 158.049 460.103C156.001 460.3 153.668 460.745 151.638 460.384C149.894 460.073 148.314 459.134 147.321 457.644C145.601 455.063 145.422 450.851 145.001 447.81C143.724 438.589 142.881 429.499 143.752 420.19C144.614 410.966 146.851 401.599 148.367 392.423L151.338 374.538C151.811 371.684 152.139 368.746 152.76 365.924Z" id="svg_19" class="" fill-opacity="1"/></g></svg>